<svg xmlns="http://www.w3.org/2000/svg" xmlns:xlink="http://www.w3.org/1999/xlink" width="1080" zoomAndPan="magnify" viewBox="0 0 810 809.999993" height="1080" preserveAspectRatio="xMidYMid meet" version="1.0"><path fill="#000000" d="M 708.890625 254.363281 C 702.378906 242.699219 695.230469 231.4375 687.445312 220.578125 C 679.664062 209.71875 671.296875 199.328125 662.34375 189.414062 C 653.390625 179.496094 643.910156 170.113281 633.902344 161.269531 C 623.890625 152.421875 613.417969 144.164062 602.480469 136.496094 C 601.09375 135.515625 599.640625 134.640625 598.121094 133.875 C 596.605469 133.109375 595.039062 132.460938 593.421875 131.933594 C 591.808594 131.402344 590.160156 130.996094 588.484375 130.714844 C 586.808594 130.433594 585.121094 130.28125 583.421875 130.253906 C 581.722656 130.226562 580.03125 130.324219 578.34375 130.550781 C 576.660156 130.78125 575.003906 131.132812 573.371094 131.609375 C 571.738281 132.085938 570.152344 132.679688 568.609375 133.398438 C 567.070312 134.113281 565.589844 134.941406 564.171875 135.878906 L 529.886719 158.492188 C 528.882812 159.148438 527.921875 159.863281 527.007812 160.644531 C 526.089844 161.421875 525.230469 162.253906 524.421875 163.144531 C 523.613281 164.03125 522.863281 164.96875 522.171875 165.949219 C 521.484375 166.933594 520.859375 167.957031 520.300781 169.019531 C 519.738281 170.082031 519.25 171.175781 518.828125 172.300781 C 518.40625 173.425781 518.058594 174.574219 517.785156 175.746094 C 517.511719 176.914062 517.308594 178.097656 517.1875 179.292969 C 517.0625 180.488281 517.011719 181.683594 517.039062 182.886719 C 517.066406 184.101562 517.167969 185.3125 517.347656 186.511719 C 517.527344 187.714844 517.78125 188.902344 518.109375 190.074219 C 518.441406 191.242188 518.84375 192.386719 519.320312 193.507812 C 519.796875 194.625 520.339844 195.710938 520.953125 196.761719 C 521.570312 197.808594 522.246094 198.816406 522.988281 199.777344 C 523.730469 200.742188 524.53125 201.65625 525.386719 202.515625 C 526.246094 203.375 527.15625 204.179688 528.113281 204.925781 C 529.074219 205.671875 530.078125 206.351562 531.125 206.96875 C 540.527344 212.628906 549.535156 218.859375 558.148438 225.660156 C 566.761719 232.464844 574.910156 239.785156 582.59375 247.621094 C 590.277344 255.460938 597.433594 263.753906 604.0625 272.503906 C 610.691406 281.25 616.742188 290.382812 622.214844 299.902344 C 624.960938 304.5625 627.554688 309.308594 630 314.136719 C 632.441406 318.964844 634.730469 323.867188 636.863281 328.839844 C 638.996094 333.8125 640.96875 338.847656 642.78125 343.949219 C 644.59375 349.046875 646.246094 354.199219 647.730469 359.402344 C 649.21875 364.605469 650.535156 369.851562 651.691406 375.140625 C 652.84375 380.425781 653.828125 385.746094 654.640625 391.097656 C 655.457031 396.445312 656.101562 401.816406 656.578125 407.207031 C 657.050781 412.601562 657.355469 418 657.484375 423.410156 C 657.617188 428.820312 657.574219 434.230469 657.363281 439.640625 C 657.152344 445.046875 656.769531 450.441406 656.214844 455.824219 C 655.660156 461.210938 654.933594 466.570312 654.039062 471.90625 C 653.144531 477.246094 652.082031 482.546875 650.851562 487.820312 C 649.617188 493.089844 648.21875 498.3125 646.65625 503.496094 C 645.09375 508.675781 643.367188 513.800781 641.476562 518.875 C 639.589844 523.945312 637.542969 528.949219 635.335938 533.890625 C 633.128906 538.832031 630.765625 543.699219 628.25 548.488281 L 604.335938 534.707031 C 602.933594 533.890625 601.449219 533.277344 599.882812 532.867188 C 598.3125 532.457031 596.71875 532.261719 595.097656 532.28125 C 593.476562 532.304688 591.886719 532.539062 590.332031 532.992188 C 588.773438 533.441406 587.304688 534.09375 585.925781 534.941406 C 584.542969 535.792969 583.300781 536.8125 582.195312 537.996094 C 581.089844 539.183594 580.164062 540.496094 579.414062 541.933594 C 578.664062 543.371094 578.117188 544.882812 577.777344 546.46875 C 577.4375 548.054688 577.3125 549.660156 577.40625 551.277344 L 585.144531 691.835938 C 585.183594 692.578125 585.273438 693.316406 585.402344 694.050781 C 585.535156 694.785156 585.714844 695.503906 585.9375 696.214844 C 586.160156 696.925781 586.421875 697.621094 586.730469 698.300781 C 587.039062 698.976562 587.390625 699.632812 587.78125 700.265625 C 588.171875 700.902344 588.597656 701.507812 589.0625 702.089844 C 589.53125 702.671875 590.027344 703.222656 590.5625 703.742188 C 591.097656 704.257812 591.660156 704.742188 592.253906 705.191406 C 592.847656 705.640625 593.46875 706.050781 594.113281 706.421875 C 594.757812 706.792969 595.425781 707.125 596.109375 707.414062 C 596.796875 707.703125 597.5 707.945312 598.214844 708.148438 C 598.933594 708.351562 599.65625 708.507812 600.394531 708.617188 C 601.128906 708.726562 601.871094 708.792969 602.613281 708.8125 C 603.359375 708.832031 604.101562 708.804688 604.839844 708.730469 C 605.582031 708.65625 606.316406 708.539062 607.042969 708.375 C 607.765625 708.210938 608.480469 708 609.179688 707.746094 C 609.878906 707.492188 610.5625 707.199219 611.226562 706.859375 L 736.519531 642.890625 C 737.960938 642.15625 739.28125 641.242188 740.476562 640.152344 C 741.671875 639.058594 742.699219 637.828125 743.5625 636.457031 C 744.425781 635.089844 745.089844 633.628906 745.558594 632.078125 C 746.023438 630.527344 746.277344 628.941406 746.316406 627.324219 C 746.359375 625.707031 746.179688 624.109375 745.789062 622.539062 C 745.398438 620.96875 744.804688 619.476562 744.011719 618.066406 C 743.21875 616.65625 742.25 615.375 741.109375 614.226562 C 739.972656 613.078125 738.699219 612.101562 737.296875 611.296875 L 712.683594 596.8125 L 714.621094 593.019531 C 717.960938 586.476562 721.101562 579.835938 724.039062 573.101562 C 726.976562 566.367188 729.703125 559.546875 732.222656 552.644531 C 734.742188 545.742188 737.046875 538.769531 739.140625 531.726562 C 741.234375 524.683594 743.109375 517.582031 744.769531 510.421875 C 746.425781 503.261719 747.867188 496.0625 749.082031 488.8125 C 750.300781 481.566406 751.296875 474.289062 752.070312 466.984375 C 752.84375 459.675781 753.390625 452.351562 753.71875 445.007812 C 754.042969 437.667969 754.144531 430.324219 754.019531 422.976562 C 753.894531 415.628906 753.546875 408.292969 752.972656 400.964844 C 752.398438 393.640625 751.601562 386.339844 750.582031 379.0625 C 749.5625 371.785156 748.324219 364.542969 746.859375 357.34375 C 745.398438 350.140625 743.71875 342.992188 741.816406 335.894531 C 739.917969 328.796875 737.800781 321.761719 735.472656 314.792969 C 733.144531 307.824219 730.601562 300.933594 727.851562 294.121094 C 725.097656 287.308594 722.140625 280.585938 718.980469 273.953125 C 715.816406 267.320312 712.453125 260.789062 708.890625 254.363281 Z M 691.632812 611.449219 L 717.484375 626.320312 L 607.972656 682.234375 L 601.164062 559.410156 L 627.011719 574.277344 C 627.664062 574.628906 628.34375 574.917969 629.050781 575.140625 C 629.757812 575.363281 630.480469 575.515625 631.214844 575.597656 C 631.949219 575.683594 632.6875 575.695312 633.425781 575.636719 C 634.164062 575.582031 634.890625 575.453125 635.605469 575.257812 C 636.320312 575.0625 637.007812 574.796875 637.671875 574.46875 C 638.335938 574.140625 638.964844 573.753906 639.554688 573.304688 C 640.144531 572.855469 640.6875 572.355469 641.179688 571.800781 C 641.671875 571.25 642.109375 570.65625 642.492188 570.019531 C 645.59375 564.699219 648.519531 559.28125 651.261719 553.765625 C 654.007812 548.25 656.566406 542.648438 658.9375 536.964844 C 661.3125 531.277344 663.496094 525.523438 665.488281 519.691406 C 667.480469 513.863281 669.277344 507.972656 670.878906 502.023438 C 672.480469 496.074219 673.882812 490.078125 675.085938 484.039062 C 676.292969 477.996094 677.292969 471.921875 678.097656 465.8125 C 678.898438 459.703125 679.496094 453.574219 679.894531 447.425781 C 680.289062 441.277344 680.480469 435.121094 680.46875 428.960938 C 680.457031 422.800781 680.242188 416.648438 679.824219 410.5 C 679.402344 404.351562 678.78125 398.226562 677.953125 392.121094 C 677.128906 386.015625 676.101562 379.945312 674.875 373.90625 C 673.648438 367.871094 672.222656 361.878906 670.597656 355.9375 C 668.972656 349.996094 667.152344 344.113281 665.136719 338.289062 C 663.125 332.46875 660.917969 326.71875 658.523438 321.042969 C 656.128906 315.367188 653.546875 309.777344 650.785156 304.273438 C 648.019531 298.769531 645.074219 293.363281 641.949219 288.050781 C 635.964844 277.734375 629.355469 267.835938 622.117188 258.355469 C 614.878906 248.875 607.074219 239.886719 598.699219 231.398438 C 590.324219 222.90625 581.449219 214.976562 572.070312 207.613281 C 562.691406 200.246094 552.886719 193.5 542.65625 187.378906 C 541.832031 186.890625 541.175781 186.234375 540.695312 185.410156 C 540.214844 184.582031 539.964844 183.6875 539.949219 182.730469 C 539.917969 181.820312 540.121094 180.964844 540.546875 180.164062 C 540.976562 179.363281 541.578125 178.722656 542.347656 178.238281 L 576.632812 155.625 C 577.53125 155.003906 578.5 154.53125 579.542969 154.207031 C 580.585938 153.882812 581.652344 153.71875 582.746094 153.71875 C 583.835938 153.71875 584.90625 153.882812 585.945312 154.207031 C 586.988281 154.53125 587.960938 155.003906 588.859375 155.625 C 599.125 162.808594 608.953125 170.546875 618.34375 178.839844 C 627.734375 187.128906 636.632812 195.925781 645.03125 205.222656 C 653.429688 214.519531 661.28125 224.261719 668.582031 234.445312 C 675.882812 244.628906 682.585938 255.195312 688.695312 266.136719 C 692.019531 272.152344 695.160156 278.261719 698.113281 284.46875 C 701.066406 290.675781 703.828125 296.964844 706.394531 303.34375 C 708.964844 309.71875 711.335938 316.167969 713.507812 322.6875 C 715.683594 329.207031 717.65625 335.789062 719.425781 342.433594 C 721.199219 349.074219 722.765625 355.765625 724.128906 362.5 C 725.492188 369.238281 726.644531 376.011719 727.59375 382.820312 C 728.542969 389.628906 729.28125 396.460938 729.8125 403.316406 C 730.34375 410.167969 730.664062 417.03125 730.773438 423.90625 C 730.886719 430.777344 730.785156 437.648438 730.476562 444.515625 C 730.167969 451.382812 729.648438 458.234375 728.921875 465.070312 C 728.191406 471.90625 727.253906 478.714844 726.109375 485.492188 C 724.964844 492.269531 723.617188 499.007812 722.058594 505.703125 C 720.503906 512.398438 718.742188 519.039062 716.78125 525.628906 C 714.816406 532.214844 712.65625 538.738281 710.292969 545.195312 C 707.933594 551.648438 705.375 558.027344 702.625 564.324219 C 699.875 570.625 696.933594 576.832031 693.800781 582.953125 L 686.992188 596.582031 C 686.691406 597.230469 686.457031 597.898438 686.28125 598.589844 C 686.105469 599.28125 685.996094 599.984375 685.949219 600.695312 C 685.902344 601.40625 685.921875 602.117188 686.007812 602.828125 C 686.089844 603.535156 686.238281 604.230469 686.453125 604.910156 C 686.664062 605.589844 686.9375 606.246094 687.273438 606.878906 C 687.605469 607.507812 687.992188 608.101562 688.4375 608.660156 C 688.878906 609.222656 689.371094 609.734375 689.90625 610.203125 C 690.445312 610.671875 691.019531 611.089844 691.632812 611.449219 Z M 71.578125 627.789062 L 95.957031 613.929688 C 99.859375 620.394531 103.964844 626.730469 108.273438 632.933594 C 112.585938 639.136719 117.089844 645.191406 121.789062 651.105469 C 126.488281 657.019531 131.371094 662.777344 136.441406 668.375 C 141.507812 673.972656 146.753906 679.40625 152.171875 684.667969 C 157.585938 689.929688 163.167969 695.011719 168.910156 699.914062 C 174.65625 704.816406 180.550781 709.53125 186.597656 714.054688 C 192.644531 718.578125 198.828125 722.90625 205.152344 727.03125 C 211.476562 731.15625 217.925781 735.078125 224.503906 738.789062 C 231.078125 742.5 237.765625 745.996094 244.566406 749.28125 C 251.367188 752.5625 258.265625 755.621094 265.261719 758.460938 C 272.257812 761.296875 279.339844 763.910156 286.503906 766.292969 C 293.667969 768.675781 300.902344 770.824219 308.203125 772.742188 C 315.507812 774.660156 322.863281 776.34375 330.273438 777.789062 C 337.683594 779.234375 345.132812 780.4375 352.621094 781.40625 C 360.109375 782.371094 367.621094 783.09375 375.152344 783.578125 C 382.6875 784.0625 390.230469 784.304688 397.78125 784.300781 L 400.023438 784.300781 C 412.910156 784.347656 425.757812 783.695312 438.570312 782.34375 C 451.382812 780.992188 464.082031 778.949219 476.675781 776.214844 C 489.265625 773.480469 501.667969 770.070312 513.890625 765.984375 C 526.109375 761.898438 538.070312 757.164062 549.777344 751.777344 C 551.324219 751.070312 552.8125 750.253906 554.238281 749.328125 C 555.664062 748.398438 557.011719 747.367188 558.28125 746.238281 C 559.550781 745.105469 560.730469 743.886719 561.816406 742.578125 C 562.902344 741.269531 563.886719 739.886719 564.765625 738.429688 C 565.644531 736.972656 566.410156 735.457031 567.0625 733.886719 C 567.710938 732.3125 568.242188 730.703125 568.652344 729.050781 C 569.058594 727.398438 569.34375 725.726562 569.5 724.03125 C 569.65625 722.335938 569.6875 720.640625 569.589844 718.941406 L 567.34375 677.894531 C 567.277344 676.703125 567.132812 675.515625 566.917969 674.339844 C 566.699219 673.164062 566.410156 672.007812 566.042969 670.867188 C 565.679688 669.730469 565.246094 668.617188 564.742188 667.53125 C 564.238281 666.449219 563.667969 665.402344 563.03125 664.390625 C 562.394531 663.375 561.695312 662.410156 560.933594 661.484375 C 560.175781 660.5625 559.359375 659.691406 558.492188 658.871094 C 557.621094 658.050781 556.703125 657.289062 555.738281 656.582031 C 554.769531 655.878906 553.765625 655.238281 552.71875 654.664062 C 551.65625 654.074219 550.5625 653.554688 549.433594 653.105469 C 548.308594 652.652344 547.15625 652.277344 545.980469 651.972656 C 544.804688 651.667969 543.617188 651.4375 542.414062 651.285156 C 541.210938 651.132812 540 651.054688 538.785156 651.054688 C 537.574219 651.054688 536.363281 651.132812 535.160156 651.285156 C 533.957031 651.4375 532.765625 651.667969 531.59375 651.972656 C 530.417969 652.277344 529.265625 652.652344 528.140625 653.105469 C 527.011719 653.554688 525.917969 654.074219 524.855469 654.664062 C 515.316406 659.894531 505.488281 664.507812 495.371094 668.5 C 485.25 672.492188 474.921875 675.835938 464.378906 678.527344 C 453.839844 681.214844 443.171875 683.234375 432.378906 684.582031 C 421.582031 685.925781 410.746094 686.589844 399.871094 686.570312 L 398.320312 686.570312 C 392.90625 686.574219 387.496094 686.40625 382.089844 686.066406 C 376.683594 685.726562 371.296875 685.210938 365.921875 684.53125 C 360.550781 683.847656 355.203125 682.992188 349.886719 681.96875 C 344.566406 680.945312 339.285156 679.753906 334.042969 678.394531 C 328.800781 677.035156 323.605469 675.507812 318.460938 673.816406 C 313.3125 672.125 308.226562 670.273438 303.199219 668.257812 C 298.171875 666.246094 293.210938 664.074219 288.320312 661.742188 C 283.433594 659.414062 278.621094 656.929688 273.890625 654.292969 C 269.15625 651.65625 264.511719 648.871094 259.957031 645.941406 C 255.402344 643.007812 250.945312 639.933594 246.585938 636.71875 C 242.226562 633.503906 237.972656 630.152344 233.828125 626.664062 C 229.679688 623.179688 225.648438 619.5625 221.734375 615.820312 C 217.816406 612.078125 214.023438 608.210938 210.351562 604.226562 C 206.679688 600.242188 203.140625 596.144531 199.730469 591.933594 C 196.316406 587.722656 193.042969 583.410156 189.910156 578.992188 C 186.773438 574.574219 183.78125 570.058594 180.929688 565.449219 L 204.84375 551.820312 C 206.25 551.023438 207.527344 550.050781 208.671875 548.90625 C 209.820312 547.765625 210.792969 546.488281 211.59375 545.082031 C 212.394531 543.675781 212.992188 542.1875 213.390625 540.617188 C 213.789062 539.050781 213.972656 537.457031 213.941406 535.835938 C 213.910156 534.21875 213.664062 532.632812 213.203125 531.082031 C 212.746094 529.527344 212.085938 528.066406 211.230469 526.691406 C 210.375 525.316406 209.355469 524.082031 208.164062 522.984375 C 206.976562 521.886719 205.664062 520.964844 204.226562 520.222656 L 79.238281 455.714844 C 78.578125 455.371094 77.898438 455.074219 77.199219 454.816406 C 76.5 454.558594 75.789062 454.347656 75.066406 454.179688 C 74.339844 454.011719 73.609375 453.886719 72.867188 453.808594 C 72.128906 453.730469 71.386719 453.699219 70.644531 453.714844 C 69.898438 453.730469 69.160156 453.792969 68.421875 453.898438 C 67.6875 454.003906 66.960938 454.15625 66.242188 454.355469 C 65.523438 454.550781 64.824219 454.792969 64.136719 455.078125 C 63.449219 455.363281 62.78125 455.6875 62.132812 456.058594 C 61.488281 456.425781 60.863281 456.832031 60.269531 457.277344 C 59.671875 457.722656 59.105469 458.203125 58.570312 458.714844 C 58.03125 459.230469 57.53125 459.777344 57.0625 460.355469 C 56.589844 460.933594 56.160156 461.539062 55.765625 462.171875 C 55.375 462.804688 55.019531 463.457031 54.707031 464.132812 C 54.394531 464.808594 54.125 465.5 53.898438 466.210938 C 53.671875 466.917969 53.492188 467.640625 53.355469 468.371094 C 53.21875 469.101562 53.125 469.839844 53.082031 470.582031 L 44.722656 611.140625 C 44.625 612.757812 44.746094 614.359375 45.082031 615.941406 C 45.421875 617.527344 45.960938 619.039062 46.707031 620.476562 C 47.453125 621.914062 48.375 623.226562 49.476562 624.414062 C 50.574219 625.601562 51.8125 626.625 53.1875 627.476562 C 54.566406 628.332031 56.03125 628.984375 57.582031 629.441406 C 59.136719 629.898438 60.722656 630.140625 62.339844 630.167969 C 63.957031 630.195312 65.550781 630.007812 67.117188 629.605469 C 68.6875 629.199219 70.171875 628.597656 71.578125 627.789062 Z M 75.832031 480.03125 L 185.03125 536.410156 L 159.183594 551.121094 C 158.542969 551.5 157.945312 551.933594 157.390625 552.425781 C 156.835938 552.917969 156.332031 553.460938 155.878906 554.046875 C 155.425781 554.636719 155.035156 555.261719 154.703125 555.925781 C 154.371094 556.589844 154.105469 557.28125 153.90625 557.996094 C 153.703125 558.710938 153.574219 559.4375 153.511719 560.179688 C 153.453125 560.917969 153.464844 561.65625 153.542969 562.394531 C 153.625 563.132812 153.773438 563.855469 153.996094 564.566406 C 154.214844 565.273438 154.5 565.957031 154.851562 566.613281 C 157.859375 572 161.042969 577.28125 164.402344 582.457031 C 167.757812 587.632812 171.285156 592.691406 174.980469 597.632812 C 178.675781 602.574219 182.53125 607.386719 186.542969 612.074219 C 190.558594 616.757812 194.722656 621.304688 199.039062 625.714844 C 203.355469 630.125 207.8125 634.382812 212.410156 638.496094 C 217.007812 642.609375 221.738281 646.566406 226.601562 650.363281 C 231.460938 654.160156 236.441406 657.792969 241.546875 661.261719 C 246.648438 664.726562 251.859375 668.023438 257.179688 671.144531 C 262.5 674.265625 267.917969 677.203125 273.433594 679.964844 C 278.949219 682.726562 284.550781 685.300781 290.238281 687.6875 C 295.925781 690.078125 301.6875 692.273438 307.519531 694.28125 C 313.351562 696.285156 319.246094 698.097656 325.195312 699.710938 C 331.148438 701.324219 337.148438 702.738281 343.195312 703.953125 C 349.242188 705.171875 355.324219 706.183594 361.4375 706.996094 C 367.550781 707.804688 373.683594 708.414062 379.839844 708.816406 C 385.992188 709.222656 392.15625 709.421875 398.320312 709.414062 L 400.023438 709.414062 C 411.878906 709.4375 423.6875 708.714844 435.453125 707.246094 C 447.214844 705.78125 458.839844 703.578125 470.324219 700.648438 C 481.8125 697.714844 493.070312 694.074219 504.097656 689.722656 C 515.125 685.371094 525.835938 680.34375 536.234375 674.644531 C 537.0625 674.179688 537.953125 673.949219 538.902344 673.949219 C 539.851562 673.949219 540.742188 674.179688 541.574219 674.644531 C 542.378906 675.070312 543.023438 675.671875 543.507812 676.449219 C 543.992188 677.222656 544.25 678.066406 544.28125 678.980469 L 546.527344 720.023438 C 546.585938 721.113281 546.480469 722.1875 546.214844 723.246094 C 545.949219 724.304688 545.53125 725.300781 544.96875 726.234375 C 544.402344 727.164062 543.710938 727.992188 542.894531 728.71875 C 542.078125 729.441406 541.171875 730.027344 540.179688 730.480469 C 529.085938 735.628906 517.738281 740.140625 506.140625 744.019531 C 494.539062 747.898438 482.761719 751.117188 470.800781 753.675781 C 458.84375 756.234375 446.777344 758.121094 434.609375 759.332031 C 422.441406 760.542969 410.242188 761.070312 398.011719 760.914062 C 390.726562 760.917969 383.449219 760.683594 376.175781 760.203125 C 368.90625 759.726562 361.660156 759.007812 354.4375 758.050781 C 347.214844 757.09375 340.03125 755.894531 332.886719 754.460938 C 325.742188 753.027344 318.65625 751.355469 311.621094 749.449219 C 304.589844 747.546875 297.625 745.410156 290.734375 743.042969 C 283.84375 740.675781 277.039062 738.085938 270.316406 735.265625 C 263.597656 732.449219 256.980469 729.410156 250.460938 726.152344 C 243.941406 722.894531 237.539062 719.425781 231.25 715.742188 C 224.960938 712.0625 218.800781 708.175781 212.769531 704.085938 C 206.738281 699.992188 200.847656 695.707031 195.101562 691.226562 C 189.351562 686.746094 183.761719 682.078125 178.320312 677.226562 C 172.882812 672.375 167.613281 667.347656 162.507812 662.144531 C 157.402344 656.945312 152.472656 651.578125 147.722656 646.050781 C 142.972656 640.519531 138.410156 634.839844 134.039062 629.007812 C 129.664062 623.179688 125.488281 617.207031 121.511719 611.101562 C 117.53125 604.992188 113.761719 598.757812 110.195312 592.398438 C 109.816406 591.761719 109.382812 591.164062 108.890625 590.605469 C 108.398438 590.050781 107.859375 589.546875 107.273438 589.09375 C 106.683594 588.640625 106.058594 588.25 105.394531 587.914062 C 104.730469 587.582031 104.042969 587.316406 103.328125 587.117188 C 102.613281 586.917969 101.886719 586.785156 101.144531 586.726562 C 100.40625 586.664062 99.667969 586.675781 98.929688 586.757812 C 98.191406 586.835938 97.46875 586.988281 96.761719 587.207031 C 96.050781 587.425781 95.371094 587.710938 94.71875 588.0625 L 68.480469 602.855469 Z M 61.207031 427.0625 L 97.503906 445.800781 C 98.039062 446.074219 98.582031 446.332031 99.132812 446.574219 C 99.683594 446.8125 100.242188 447.035156 100.808594 447.238281 C 101.375 447.441406 101.945312 447.628906 102.523438 447.796875 C 103.101562 447.964844 103.683594 448.117188 104.269531 448.246094 C 104.855469 448.378906 105.445312 448.492188 106.039062 448.585938 C 106.632812 448.679688 107.230469 448.757812 107.828125 448.8125 C 108.429688 448.871094 109.027344 448.90625 109.628906 448.925781 C 110.230469 448.945312 110.832031 448.945312 111.433594 448.925781 C 112.03125 448.90625 112.632812 448.867188 113.230469 448.808594 C 113.828125 448.753906 114.425781 448.675781 115.019531 448.582031 C 115.613281 448.484375 116.203125 448.371094 116.789062 448.238281 C 117.378906 448.109375 117.957031 447.957031 118.535156 447.789062 C 119.113281 447.617188 119.683594 447.433594 120.25 447.226562 C 120.816406 447.019531 121.375 446.796875 121.925781 446.558594 C 122.476562 446.316406 123.019531 446.058594 123.554688 445.785156 C 124.089844 445.511719 124.613281 445.21875 125.128906 444.910156 C 125.648438 444.601562 126.152344 444.277344 126.648438 443.9375 C 127.144531 443.597656 127.632812 443.242188 128.105469 442.871094 C 128.578125 442.503906 129.039062 442.117188 129.488281 441.71875 C 129.9375 441.316406 130.375 440.902344 130.796875 440.476562 C 131.222656 440.046875 131.628906 439.609375 132.027344 439.15625 C 132.421875 438.703125 132.800781 438.238281 133.167969 437.757812 C 133.535156 437.28125 133.886719 436.792969 134.21875 436.292969 C 134.554688 435.792969 134.875 435.285156 135.175781 434.765625 C 135.480469 434.246094 135.765625 433.714844 136.035156 433.179688 C 136.304688 432.640625 136.558594 432.09375 136.792969 431.542969 C 137.027344 430.988281 137.246094 430.425781 137.445312 429.859375 C 137.644531 429.292969 137.828125 428.71875 137.992188 428.140625 C 138.15625 427.558594 138.300781 426.976562 138.425781 426.386719 C 138.554688 425.800781 138.664062 425.207031 138.75 424.613281 C 138.839844 424.019531 138.910156 423.421875 138.964844 422.820312 C 139.015625 422.222656 139.046875 421.621094 139.0625 421.019531 C 139.449219 410.425781 140.476562 399.894531 142.148438 389.421875 C 143.824219 378.953125 146.125 368.625 149.0625 358.4375 C 151.996094 348.25 155.539062 338.28125 159.695312 328.527344 C 163.847656 318.773438 168.578125 309.308594 173.886719 300.132812 C 176.558594 295.425781 179.378906 290.808594 182.34375 286.277344 C 185.308594 281.75 188.414062 277.320312 191.660156 272.988281 C 194.90625 268.65625 198.289062 264.433594 201.804688 260.316406 C 205.320312 256.203125 208.960938 252.203125 212.730469 248.316406 C 216.5 244.433594 220.386719 240.671875 224.394531 237.035156 C 228.402344 233.398438 232.519531 229.890625 236.75 226.515625 C 240.980469 223.140625 245.316406 219.902344 249.75 216.804688 C 254.1875 213.703125 258.71875 210.75 263.339844 207.9375 C 267.964844 205.125 272.671875 202.464844 277.464844 199.953125 C 282.257812 197.441406 287.128906 195.082031 292.070312 192.878906 C 297.011719 190.675781 302.019531 188.632812 307.09375 186.75 C 312.164062 184.867188 317.292969 183.144531 322.472656 181.585938 C 327.65625 180.027344 332.882812 178.636719 338.152344 177.410156 C 343.421875 176.1875 348.726562 175.128906 354.0625 174.242188 C 359.398438 173.351562 364.757812 172.632812 370.140625 172.085938 C 375.523438 171.539062 380.917969 171.164062 386.328125 170.960938 L 386.328125 198.605469 C 386.34375 200.203125 386.570312 201.765625 387.007812 203.300781 C 387.441406 204.835938 388.070312 206.285156 388.890625 207.652344 C 389.710938 209.019531 390.695312 210.253906 391.847656 211.359375 C 392.996094 212.464844 394.269531 213.398438 395.667969 214.164062 C 397.070312 214.929688 398.542969 215.496094 400.09375 215.867188 C 401.644531 216.242188 403.214844 216.402344 404.808594 216.355469 C 406.402344 216.308594 407.960938 216.054688 409.484375 215.59375 C 411.011719 215.128906 412.449219 214.476562 413.800781 213.628906 L 531.667969 136.808594 C 532.292969 136.402344 532.886719 135.957031 533.457031 135.476562 C 534.027344 134.996094 534.5625 134.484375 535.070312 133.933594 C 535.574219 133.386719 536.042969 132.8125 536.476562 132.207031 C 536.910156 131.597656 537.304688 130.96875 537.660156 130.3125 C 538.015625 129.660156 538.328125 128.984375 538.601562 128.289062 C 538.871094 127.597656 539.097656 126.886719 539.28125 126.164062 C 539.464844 125.441406 539.601562 124.710938 539.695312 123.972656 C 539.789062 123.234375 539.835938 122.492188 539.835938 121.746094 C 539.835938 121 539.789062 120.257812 539.695312 119.519531 C 539.601562 118.777344 539.464844 118.046875 539.28125 117.324219 C 539.097656 116.601562 538.871094 115.894531 538.601562 115.199219 C 538.328125 114.507812 538.015625 113.832031 537.660156 113.175781 C 537.304688 112.523438 536.910156 111.890625 536.476562 111.285156 C 536.042969 110.679688 535.574219 110.101562 535.070312 109.554688 C 534.5625 109.007812 534.027344 108.492188 533.457031 108.011719 C 532.886719 107.53125 532.292969 107.089844 531.667969 106.683594 L 413.800781 29.9375 C 412.445312 29.050781 411 28.359375 409.460938 27.867188 C 407.917969 27.371094 406.339844 27.089844 404.722656 27.023438 C 403.109375 26.953125 401.511719 27.101562 399.933594 27.464844 C 398.359375 27.832031 396.859375 28.398438 395.4375 29.167969 C 394.011719 29.9375 392.71875 30.882812 391.550781 32 C 390.382812 33.121094 389.382812 34.375 388.554688 35.765625 C 387.722656 37.15625 387.09375 38.632812 386.664062 40.191406 C 386.234375 41.753906 386.019531 43.34375 386.015625 44.960938 L 386.015625 73.074219 C 378.476562 73.273438 370.949219 73.714844 363.4375 74.398438 C 355.921875 75.082031 348.441406 76.003906 340.988281 77.167969 C 333.535156 78.332031 326.125 79.734375 318.761719 81.375 C 311.398438 83.015625 304.09375 84.890625 296.851562 87 C 289.609375 89.109375 282.441406 91.445312 275.347656 94.015625 C 268.253906 96.585938 261.25 99.378906 254.335938 102.398438 C 247.421875 105.417969 240.613281 108.65625 233.90625 112.113281 C 227.199219 115.570312 220.613281 119.242188 214.140625 123.121094 C 207.671875 127 201.332031 131.085938 195.121094 135.371094 C 188.914062 139.660156 182.847656 144.144531 176.925781 148.820312 C 171.007812 153.496094 165.242188 158.359375 159.632812 163.40625 C 154.023438 168.453125 148.582031 173.675781 143.304688 179.074219 C 138.03125 184.472656 132.9375 190.03125 128.019531 195.757812 C 123.101562 201.480469 118.371094 207.355469 113.832031 213.386719 C 109.292969 219.414062 104.949219 225.582031 100.804688 231.886719 C 96.660156 238.195312 92.722656 244.628906 88.988281 251.191406 C 82.671875 262.046875 76.941406 273.207031 71.800781 284.667969 C 66.660156 296.132812 62.140625 307.835938 58.238281 319.777344 C 54.335938 331.71875 51.074219 343.835938 48.453125 356.121094 C 45.832031 368.410156 43.867188 380.800781 42.554688 393.296875 C 42.382812 395 42.335938 396.710938 42.421875 398.421875 C 42.507812 400.132812 42.722656 401.828125 43.066406 403.507812 C 43.410156 405.183594 43.878906 406.828125 44.46875 408.4375 C 45.0625 410.042969 45.773438 411.597656 46.601562 413.097656 C 47.429688 414.597656 48.367188 416.027344 49.414062 417.382812 C 50.457031 418.742188 51.601562 420.011719 52.839844 421.195312 C 54.078125 422.378906 55.398438 423.464844 56.800781 424.445312 C 58.203125 425.429688 59.671875 426.300781 61.207031 427.0625 Z M 109.421875 262.804688 C 113.015625 256.46875 116.820312 250.257812 120.828125 244.171875 C 124.832031 238.085938 129.039062 232.140625 133.4375 226.335938 C 137.839844 220.527344 142.429688 214.875 147.203125 209.371094 C 151.980469 203.867188 156.929688 198.53125 162.058594 193.355469 C 167.1875 188.183594 172.484375 183.183594 177.941406 178.359375 C 183.402344 173.539062 189.015625 168.902344 194.78125 164.449219 C 200.550781 160 206.457031 155.746094 212.503906 151.683594 C 218.554688 147.625 224.730469 143.773438 231.035156 140.121094 C 237.335938 136.472656 243.753906 133.035156 250.285156 129.8125 C 256.816406 126.585938 263.449219 123.582031 270.179688 120.796875 C 276.910156 118.011719 283.722656 115.453125 290.625 113.121094 C 297.523438 110.789062 304.492188 108.6875 311.53125 106.816406 C 318.570312 104.945312 325.664062 103.308594 332.808594 101.910156 C 339.957031 100.507812 347.144531 99.347656 354.367188 98.421875 C 361.589844 97.5 368.835938 96.8125 376.105469 96.371094 C 383.375 95.925781 390.652344 95.726562 397.933594 95.761719 C 398.699219 95.761719 399.453125 95.6875 400.199219 95.539062 C 400.949219 95.390625 401.671875 95.171875 402.378906 94.878906 C 403.082031 94.585938 403.75 94.230469 404.382812 93.804688 C 405.019531 93.382812 405.605469 92.902344 406.144531 92.359375 C 406.683594 91.820312 407.164062 91.234375 407.585938 90.601562 C 408.011719 89.964844 408.367188 89.296875 408.660156 88.59375 C 408.953125 87.886719 409.171875 87.160156 409.320312 86.414062 C 409.46875 85.664062 409.542969 84.910156 409.542969 84.148438 L 409.542969 54.71875 L 512.550781 121.785156 L 409.542969 188.695312 L 409.542969 159.109375 C 409.542969 158.347656 409.46875 157.59375 409.320312 156.84375 C 409.171875 156.097656 408.953125 155.371094 408.660156 154.664062 C 408.367188 153.960938 408.011719 153.292969 407.585938 152.65625 C 407.164062 152.023438 406.683594 151.4375 406.144531 150.898438 C 405.605469 150.359375 405.019531 149.875 404.382812 149.453125 C 403.75 149.027344 403.082031 148.671875 402.378906 148.378906 C 401.671875 148.085938 400.949219 147.867188 400.199219 147.71875 C 399.453125 147.570312 398.699219 147.496094 397.933594 147.496094 C 391.777344 147.453125 385.625 147.617188 379.476562 147.984375 C 373.328125 148.351562 367.199219 148.917969 361.089844 149.695312 C 354.976562 150.46875 348.902344 151.441406 342.855469 152.621094 C 336.808594 153.796875 330.808594 155.171875 324.855469 156.746094 C 318.902344 158.320312 313.007812 160.09375 307.167969 162.058594 C 301.332031 164.023438 295.566406 166.183594 289.871094 168.53125 C 284.179688 170.878906 278.570312 173.414062 273.042969 176.136719 C 267.515625 178.859375 262.085938 181.757812 256.753906 184.839844 C 251.421875 187.921875 246.195312 191.175781 241.078125 194.605469 C 235.957031 198.035156 230.960938 201.628906 226.078125 205.386719 C 221.199219 209.148438 216.449219 213.066406 211.832031 217.140625 C 207.210938 221.214844 202.730469 225.4375 198.390625 229.8125 C 194.050781 234.183594 189.859375 238.695312 185.816406 243.347656 C 181.777344 247.996094 177.894531 252.777344 174.167969 257.683594 C 170.445312 262.59375 166.886719 267.621094 163.496094 272.761719 C 160.105469 277.90625 156.886719 283.160156 153.84375 288.515625 C 148.039062 298.542969 142.867188 308.882812 138.328125 319.542969 C 133.789062 330.203125 129.917969 341.097656 126.714844 352.234375 C 123.511719 363.367188 121.003906 374.65625 119.183594 386.101562 C 117.367188 397.542969 116.253906 409.054688 115.84375 420.632812 C 115.835938 420.855469 115.8125 421.078125 115.777344 421.296875 C 115.742188 421.515625 115.691406 421.734375 115.628906 421.949219 C 115.566406 422.160156 115.488281 422.371094 115.398438 422.574219 C 115.308594 422.777344 115.207031 422.976562 115.09375 423.167969 C 114.980469 423.359375 114.855469 423.542969 114.71875 423.71875 C 114.582031 423.894531 114.433594 424.0625 114.273438 424.21875 C 114.117188 424.375 113.949219 424.523438 113.773438 424.65625 C 113.597656 424.792969 113.414062 424.917969 113.222656 425.03125 C 113.03125 425.144531 112.832031 425.246094 112.628906 425.335938 C 112.421875 425.421875 112.214844 425.5 112 425.5625 C 111.785156 425.625 111.570312 425.671875 111.347656 425.707031 C 111.128906 425.742188 110.90625 425.761719 110.683594 425.769531 C 110.460938 425.777344 110.242188 425.773438 110.019531 425.75 C 109.796875 425.730469 109.578125 425.695312 109.359375 425.648438 C 109.140625 425.601562 108.929688 425.539062 108.71875 425.464844 C 108.507812 425.390625 108.304688 425.300781 108.105469 425.203125 L 71.808594 406.460938 C 70.835938 405.964844 69.960938 405.335938 69.179688 404.570312 C 68.398438 403.808594 67.75 402.945312 67.230469 401.984375 C 66.710938 401.023438 66.347656 400.007812 66.140625 398.933594 C 65.929688 397.863281 65.886719 396.78125 66.003906 395.695312 C 67.230469 384.011719 69.070312 372.425781 71.523438 360.933594 C 73.972656 349.445312 77.023438 338.117188 80.671875 326.949219 C 84.320312 315.78125 88.546875 304.835938 93.351562 294.117188 C 98.15625 283.398438 103.515625 272.960938 109.421875 262.804688 Z M 350.03125 392.058594 C 349.492188 391.519531 348.90625 391.039062 348.269531 390.613281 C 347.636719 390.191406 346.96875 389.835938 346.265625 389.542969 C 345.5625 389.25 344.835938 389.03125 344.089844 388.882812 C 343.34375 388.734375 342.589844 388.660156 341.828125 388.660156 C 341.066406 388.660156 340.3125 388.734375 339.5625 388.882812 C 338.816406 389.03125 338.089844 389.25 337.386719 389.542969 C 336.683594 389.832031 336.015625 390.191406 335.382812 390.613281 C 334.75 391.039062 334.160156 391.519531 333.625 392.058594 L 298.875 426.597656 C 298.335938 427.136719 297.855469 427.722656 297.433594 428.355469 C 297.011719 428.988281 296.652344 429.660156 296.363281 430.363281 C 296.070312 431.066406 295.851562 431.792969 295.703125 432.539062 C 295.554688 433.289062 295.480469 434.042969 295.480469 434.804688 C 295.480469 435.566406 295.554688 436.320312 295.703125 437.070312 C 295.851562 437.816406 296.070312 438.542969 296.363281 439.246094 C 296.652344 439.953125 297.011719 440.621094 297.433594 441.253906 C 297.855469 441.886719 298.335938 442.472656 298.875 443.015625 L 366.746094 511.316406 C 367.285156 511.855469 367.871094 512.335938 368.503906 512.761719 C 369.136719 513.183594 369.808594 513.539062 370.511719 513.832031 C 371.214844 514.125 371.941406 514.34375 372.6875 514.492188 C 373.433594 514.640625 374.1875 514.714844 374.949219 514.714844 C 375.710938 514.714844 376.464844 514.640625 377.214844 514.492188 C 377.960938 514.34375 378.683594 514.125 379.390625 513.832031 C 380.09375 513.539062 380.761719 513.183594 381.394531 512.761719 C 382.027344 512.335938 382.613281 511.855469 383.152344 511.316406 L 417.902344 476.777344 L 497.382812 397.789062 C 497.921875 397.25 498.402344 396.660156 498.824219 396.027344 C 499.246094 395.394531 499.605469 394.726562 499.894531 394.019531 C 500.1875 393.316406 500.40625 392.589844 500.554688 391.84375 C 500.703125 391.097656 500.777344 390.339844 500.777344 389.578125 C 500.777344 388.816406 500.703125 388.0625 500.554688 387.3125 C 500.40625 386.566406 500.1875 385.839844 499.894531 385.136719 C 499.605469 384.433594 499.246094 383.761719 498.824219 383.128906 C 498.402344 382.496094 497.921875 381.910156 497.382812 381.371094 L 462.867188 346.597656 C 461.746094 345.558594 460.480469 344.746094 459.070312 344.15625 C 457.660156 343.570312 456.191406 343.25 454.664062 343.191406 C 453.125 343.191406 451.644531 343.488281 450.222656 344.078125 C 448.800781 344.667969 447.546875 345.507812 446.460938 346.597656 L 375.105469 417.304688 Z M 454.664062 370.992188 L 472.851562 389.269531 L 375.105469 486.691406 L 323.640625 434.882812 L 341.902344 416.683594 L 366.980469 441.929688 C 367.515625 442.46875 368.105469 442.949219 368.738281 443.371094 C 369.371094 443.796875 370.039062 444.152344 370.742188 444.445312 C 371.445312 444.734375 372.171875 444.957031 372.917969 445.105469 C 373.667969 445.253906 374.421875 445.328125 375.183594 445.328125 C 375.945312 445.328125 376.699219 445.253906 377.445312 445.105469 C 378.191406 444.957031 378.917969 444.734375 379.621094 444.445312 C 380.324219 444.152344 380.992188 443.796875 381.628906 443.371094 C 382.261719 442.949219 382.847656 442.46875 383.386719 441.929688 Z M 209.796875 428.765625 C 209.796875 431.847656 209.871094 434.933594 210.019531 438.011719 C 210.171875 441.09375 210.394531 444.167969 210.695312 447.238281 C 210.996094 450.308594 211.375 453.371094 211.824219 456.421875 C 212.277344 459.472656 212.800781 462.511719 213.402344 465.535156 C 214 468.5625 214.675781 471.570312 215.421875 474.5625 C 216.171875 477.554688 216.992188 480.527344 217.882812 483.480469 C 218.777344 486.433594 219.742188 489.359375 220.78125 492.265625 C 221.816406 495.171875 222.925781 498.046875 224.105469 500.898438 C 225.28125 503.75 226.53125 506.566406 227.847656 509.355469 C 229.164062 512.144531 230.546875 514.902344 232 517.621094 C 233.453125 520.34375 234.96875 523.027344 236.550781 525.671875 C 238.136719 528.320312 239.785156 530.925781 241.496094 533.492188 C 243.207031 536.054688 244.980469 538.578125 246.816406 541.058594 C 248.648438 543.535156 250.542969 545.96875 252.5 548.351562 C 254.453125 550.738281 256.464844 553.074219 258.535156 555.359375 C 260.601562 557.648438 262.726562 559.882812 264.90625 562.0625 C 267.085938 564.246094 269.316406 566.371094 271.597656 568.445312 C 273.882812 570.519531 276.214844 572.535156 278.597656 574.492188 C 280.976562 576.449219 283.40625 578.347656 285.882812 580.1875 C 288.355469 582.023438 290.875 583.800781 293.4375 585.515625 C 296 587.230469 298.601562 588.882812 301.246094 590.46875 C 303.886719 592.058594 306.570312 593.578125 309.285156 595.035156 C 312.003906 596.488281 314.757812 597.878906 317.542969 599.199219 C 320.328125 600.519531 323.144531 601.769531 325.992188 602.949219 C 328.839844 604.132812 331.714844 605.242188 334.617188 606.285156 C 337.515625 607.324219 340.441406 608.292969 343.390625 609.191406 C 346.339844 610.085938 349.3125 610.910156 352.300781 611.664062 C 355.289062 612.414062 358.296875 613.089844 361.320312 613.695312 C 364.34375 614.296875 367.378906 614.828125 370.429688 615.28125 C 373.476562 615.734375 376.535156 616.113281 379.601562 616.417969 C 382.671875 616.722656 385.742188 616.949219 388.820312 617.105469 C 391.902344 617.257812 394.980469 617.335938 398.0625 617.335938 C 401.148438 617.335938 404.226562 617.261719 407.304688 617.113281 C 410.386719 616.964844 413.457031 616.738281 416.527344 616.4375 C 419.59375 616.136719 422.652344 615.761719 425.703125 615.3125 C 428.75 614.859375 431.789062 614.335938 434.8125 613.734375 C 437.835938 613.132812 440.84375 612.460938 443.832031 611.710938 C 446.824219 610.964844 449.792969 610.144531 452.746094 609.25 C 455.695312 608.355469 458.621094 607.390625 461.523438 606.355469 C 464.425781 605.316406 467.304688 604.207031 470.152344 603.03125 C 473 601.851562 475.820312 600.601562 478.605469 599.285156 C 481.394531 597.96875 484.148438 596.582031 486.867188 595.132812 C 489.585938 593.679688 492.269531 592.160156 494.914062 590.574219 C 497.558594 588.992188 500.160156 587.34375 502.726562 585.632812 C 505.289062 583.917969 507.8125 582.144531 510.289062 580.308594 C 512.765625 578.472656 515.195312 576.578125 517.578125 574.621094 C 519.964844 572.667969 522.296875 570.652344 524.582031 568.585938 C 526.867188 566.515625 529.101562 564.390625 531.28125 562.210938 C 533.464844 560.03125 535.589844 557.796875 537.660156 555.511719 C 539.734375 553.230469 541.746094 550.894531 543.703125 548.511719 C 545.660156 546.128906 547.558594 543.699219 549.398438 541.222656 C 551.234375 538.746094 553.011719 536.226562 554.726562 533.664062 C 556.4375 531.097656 558.089844 528.496094 559.675781 525.851562 C 561.261719 523.207031 562.78125 520.523438 564.238281 517.804688 C 565.691406 515.085938 567.078125 512.332031 568.398438 509.542969 C 569.71875 506.757812 570.96875 503.9375 572.152344 501.089844 C 573.332031 498.238281 574.445312 495.363281 575.484375 492.460938 C 576.523438 489.554688 577.492188 486.628906 578.390625 483.675781 C 579.285156 480.726562 580.109375 477.753906 580.863281 474.761719 C 581.613281 471.773438 582.289062 468.761719 582.894531 465.738281 C 583.496094 462.714844 584.023438 459.675781 584.480469 456.625 C 584.933594 453.574219 585.3125 450.515625 585.617188 447.445312 C 585.921875 444.375 586.152344 441.300781 586.304688 438.21875 C 586.457031 435.136719 586.535156 432.054688 586.539062 428.972656 C 586.539062 425.886719 586.464844 422.804688 586.316406 419.722656 C 586.167969 416.640625 585.941406 413.566406 585.644531 410.496094 C 585.34375 407.425781 584.96875 404.367188 584.519531 401.3125 C 584.066406 398.261719 583.542969 395.222656 582.945312 392.199219 C 582.34375 389.171875 581.671875 386.164062 580.925781 383.171875 C 580.175781 380.179688 579.359375 377.207031 578.464844 374.253906 C 577.570312 371.300781 576.609375 368.371094 575.570312 365.46875 C 574.535156 362.5625 573.425781 359.683594 572.25 356.832031 C 571.074219 353.984375 569.824219 351.164062 568.511719 348.375 C 567.195312 345.585938 565.808594 342.828125 564.359375 340.105469 C 562.910156 337.386719 561.390625 334.703125 559.808594 332.054688 C 558.226562 329.40625 556.578125 326.800781 554.867188 324.234375 C 553.15625 321.667969 551.386719 319.148438 549.550781 316.667969 C 547.714844 314.1875 545.820312 311.757812 543.867188 309.371094 C 541.914062 306.984375 539.902344 304.648438 537.835938 302.363281 C 535.765625 300.074219 533.644531 297.839844 531.464844 295.65625 C 529.289062 293.472656 527.058594 291.347656 524.773438 289.273438 C 522.492188 287.199219 520.160156 285.183594 517.777344 283.226562 C 515.398438 281.265625 512.96875 279.367188 510.496094 277.527344 C 508.019531 275.6875 505.503906 273.910156 502.941406 272.195312 C 500.378906 270.480469 497.777344 268.828125 495.132812 267.238281 C 492.492188 265.652344 489.8125 264.128906 487.09375 262.675781 C 484.375 261.21875 481.625 259.828125 478.839844 258.507812 C 476.054688 257.1875 473.238281 255.933594 470.390625 254.753906 C 467.542969 253.570312 464.667969 252.457031 461.765625 251.417969 C 458.867188 250.375 455.941406 249.40625 452.992188 248.507812 C 450.042969 247.609375 447.074219 246.785156 444.082031 246.035156 C 441.09375 245.28125 438.089844 244.601562 435.066406 244 C 432.042969 243.394531 429.007812 242.867188 425.957031 242.410156 C 422.910156 241.957031 419.851562 241.574219 416.785156 241.269531 C 413.714844 240.964844 410.644531 240.734375 407.5625 240.582031 C 404.484375 240.429688 401.40625 240.351562 398.320312 240.347656 C 395.238281 240.347656 392.160156 240.425781 389.078125 240.578125 C 386 240.730469 382.929688 240.957031 379.859375 241.261719 C 376.792969 241.566406 373.734375 241.941406 370.683594 242.398438 C 367.636719 242.851562 364.601562 243.378906 361.578125 243.980469 C 358.554688 244.582031 355.546875 245.257812 352.554688 246.007812 C 349.566406 246.757812 346.597656 247.582031 343.644531 248.476562 C 340.695312 249.371094 337.769531 250.339844 334.867188 251.378906 C 331.964844 252.417969 329.089844 253.527344 326.242188 254.707031 C 323.394531 255.886719 320.578125 257.136719 317.789062 258.453125 C 315.003906 259.773438 312.25 261.160156 309.53125 262.613281 C 306.8125 264.066406 304.128906 265.585938 301.484375 267.167969 C 298.839844 268.753906 296.238281 270.402344 293.675781 272.117188 C 291.109375 273.828125 288.589844 275.605469 286.113281 277.441406 C 283.636719 279.277344 281.207031 281.171875 278.824219 283.128906 C 276.4375 285.085938 274.105469 287.097656 271.820312 289.167969 C 269.535156 291.238281 267.300781 293.363281 265.121094 295.542969 C 262.9375 297.722656 260.8125 299.953125 258.742188 302.238281 C 256.667969 304.523438 254.652344 306.855469 252.695312 309.238281 C 250.738281 311.621094 248.839844 314.050781 247.003906 316.527344 C 245.164062 319.003906 243.386719 321.523438 241.671875 324.085938 C 239.957031 326.648438 238.308594 329.253906 236.71875 331.898438 C 235.132812 334.542969 233.613281 337.222656 232.15625 339.941406 C 230.699219 342.660156 229.3125 345.414062 227.992188 348.203125 C 226.671875 350.988281 225.417969 353.804688 224.234375 356.65625 C 223.050781 359.503906 221.941406 362.378906 220.898438 365.28125 C 219.855469 368.183594 218.886719 371.113281 217.988281 374.0625 C 217.089844 377.011719 216.261719 379.984375 215.511719 382.976562 C 214.757812 385.96875 214.078125 388.976562 213.472656 392 C 212.867188 395.023438 212.335938 398.0625 211.878906 401.113281 C 211.421875 404.164062 211.039062 407.222656 210.734375 410.292969 C 210.425781 413.359375 210.195312 416.4375 210.039062 419.515625 C 209.882812 422.597656 209.800781 425.679688 209.796875 428.765625 Z M 563.320312 428.765625 C 563.320312 431.46875 563.257812 434.171875 563.125 436.875 C 562.992188 439.578125 562.796875 442.277344 562.53125 444.96875 C 562.269531 447.660156 561.9375 450.34375 561.542969 453.019531 C 561.148438 455.699219 560.6875 458.363281 560.160156 461.015625 C 559.632812 463.671875 559.042969 466.308594 558.386719 468.933594 C 557.730469 471.558594 557.011719 474.164062 556.226562 476.753906 C 555.441406 479.34375 554.597656 481.914062 553.6875 484.460938 C 552.777344 487.007812 551.804688 489.53125 550.769531 492.03125 C 549.738281 494.53125 548.640625 497.003906 547.488281 499.449219 C 546.332031 501.894531 545.117188 504.3125 543.84375 506.699219 C 542.570312 509.085938 541.238281 511.4375 539.847656 513.757812 C 538.460938 516.082031 537.015625 518.367188 535.511719 520.617188 C 534.011719 522.867188 532.457031 525.078125 530.847656 527.25 C 529.238281 529.425781 527.574219 531.558594 525.859375 533.648438 C 524.144531 535.742188 522.378906 537.789062 520.566406 539.792969 C 518.75 541.800781 516.886719 543.757812 514.976562 545.671875 C 513.0625 547.585938 511.105469 549.449219 509.105469 551.269531 C 507.101562 553.085938 505.054688 554.851562 502.964844 556.570312 C 500.875 558.285156 498.746094 559.949219 496.574219 561.5625 C 494.402344 563.175781 492.191406 564.730469 489.945312 566.234375 C 487.699219 567.738281 485.414062 569.1875 483.09375 570.578125 C 480.777344 571.96875 478.425781 573.300781 476.042969 574.578125 C 473.65625 575.855469 471.242188 577.070312 468.796875 578.226562 C 466.355469 579.382812 463.882812 580.480469 461.386719 581.515625 C 458.886719 582.550781 456.367188 583.523438 453.820312 584.4375 C 451.277344 585.347656 448.710938 586.199219 446.121094 586.984375 C 443.535156 587.769531 440.929688 588.488281 438.308594 589.148438 C 435.683594 589.804688 433.046875 590.398438 430.398438 590.925781 C 427.746094 591.453125 425.082031 591.917969 422.40625 592.3125 C 419.734375 592.710938 417.050781 593.042969 414.359375 593.308594 C 411.667969 593.570312 408.972656 593.769531 406.273438 593.902344 C 403.574219 594.035156 400.871094 594.101562 398.167969 594.101562 C 395.464844 594.101562 392.761719 594.035156 390.0625 593.902344 C 387.359375 593.769531 384.664062 593.570312 381.976562 593.308594 C 379.285156 593.042969 376.601562 592.710938 373.925781 592.3125 C 371.253906 591.917969 368.589844 591.453125 365.9375 590.925781 C 363.285156 590.398438 360.648438 589.804688 358.027344 589.148438 C 355.402344 588.488281 352.800781 587.769531 350.210938 586.984375 C 347.625 586.199219 345.058594 585.347656 342.511719 584.4375 C 339.96875 583.523438 337.445312 582.550781 334.949219 581.515625 C 332.449219 580.480469 329.980469 579.382812 327.535156 578.226562 C 325.09375 577.070312 322.679688 575.855469 320.292969 574.578125 C 317.910156 573.300781 315.558594 571.96875 313.238281 570.578125 C 310.921875 569.1875 308.636719 567.738281 306.390625 566.234375 C 304.140625 564.730469 301.933594 563.175781 299.761719 561.5625 C 297.589844 559.949219 295.460938 558.285156 293.371094 556.570312 C 291.28125 554.851562 289.234375 553.085938 287.230469 551.269531 C 285.226562 549.449219 283.269531 547.585938 281.359375 545.671875 C 279.449219 543.757812 277.585938 541.800781 275.769531 539.792969 C 273.953125 537.789062 272.191406 535.742188 270.476562 533.648438 C 268.761719 531.558594 267.097656 529.425781 265.488281 527.25 C 263.878906 525.078125 262.324219 522.867188 260.820312 520.617188 C 259.320312 518.367188 257.875 516.082031 256.484375 513.757812 C 255.097656 511.4375 253.765625 509.085938 252.492188 506.699219 C 251.21875 504.3125 250.003906 501.894531 248.847656 499.449219 C 247.691406 497.003906 246.597656 494.53125 245.5625 492.03125 C 244.53125 489.53125 243.558594 487.007812 242.648438 484.460938 C 241.738281 481.914062 240.890625 479.34375 240.109375 476.753906 C 239.324219 474.164062 238.605469 471.558594 237.949219 468.933594 C 237.292969 466.308594 236.703125 463.667969 236.175781 461.015625 C 235.648438 458.363281 235.1875 455.699219 234.792969 453.019531 C 234.394531 450.34375 234.066406 447.660156 233.804688 444.96875 C 233.539062 442.277344 233.339844 439.578125 233.210938 436.875 C 233.078125 434.171875 233.011719 431.46875 233.015625 428.765625 C 233.015625 426.058594 233.082031 423.355469 233.21875 420.652344 C 233.351562 417.949219 233.550781 415.253906 233.816406 412.5625 C 234.085938 409.871094 234.417969 407.183594 234.816406 404.507812 C 235.210938 401.832031 235.675781 399.167969 236.207031 396.515625 C 236.734375 393.863281 237.328125 391.222656 237.984375 388.601562 C 238.644531 385.976562 239.367188 383.371094 240.152344 380.78125 C 240.9375 378.191406 241.789062 375.625 242.699219 373.078125 C 243.613281 370.53125 244.585938 368.007812 245.625 365.507812 C 246.660156 363.011719 247.757812 360.539062 248.914062 358.09375 C 250.070312 355.648438 251.289062 353.234375 252.5625 350.847656 C 253.839844 348.464844 255.171875 346.109375 256.566406 343.792969 C 257.957031 341.472656 259.402344 339.1875 260.90625 336.9375 C 262.410156 334.691406 263.96875 332.480469 265.582031 330.308594 C 267.191406 328.136719 268.855469 326.003906 270.574219 323.914062 C 272.289062 321.824219 274.058594 319.777344 275.875 317.773438 C 277.691406 315.769531 279.554688 313.8125 281.46875 311.902344 C 283.382812 309.992188 285.339844 308.128906 287.34375 306.3125 C 289.351562 304.496094 291.398438 302.730469 293.488281 301.015625 C 295.582031 299.300781 297.710938 297.640625 299.886719 296.027344 C 302.058594 294.417969 304.269531 292.863281 306.519531 291.363281 C 308.765625 289.859375 311.050781 288.414062 313.371094 287.027344 C 315.691406 285.636719 318.042969 284.304688 320.429688 283.03125 C 322.816406 281.757812 325.230469 280.546875 327.675781 279.390625 C 330.121094 278.234375 332.59375 277.140625 335.089844 276.109375 C 337.589844 275.074219 340.113281 274.105469 342.660156 273.195312 C 345.207031 272.285156 347.773438 271.4375 350.359375 270.65625 C 352.949219 269.871094 355.554688 269.152344 358.175781 268.5 C 360.800781 267.84375 363.4375 267.253906 366.089844 266.726562 C 368.742188 266.203125 371.40625 265.742188 374.082031 265.347656 C 376.753906 264.953125 379.4375 264.625 382.128906 264.363281 C 384.820312 264.097656 387.515625 263.902344 390.214844 263.773438 C 392.917969 263.640625 395.617188 263.578125 398.320312 263.582031 C 401.019531 263.585938 403.71875 263.660156 406.414062 263.796875 C 409.109375 263.9375 411.800781 264.140625 414.484375 264.410156 C 417.171875 264.679688 419.847656 265.015625 422.515625 265.417969 C 425.183594 265.820312 427.84375 266.289062 430.488281 266.820312 C 433.132812 267.351562 435.765625 267.949219 438.382812 268.609375 C 441 269.269531 443.597656 269.992188 446.179688 270.78125 C 448.761719 271.570312 451.324219 272.421875 453.863281 273.335938 C 456.402344 274.25 458.917969 275.222656 461.410156 276.261719 C 463.902344 277.296875 466.367188 278.394531 468.804688 279.554688 C 471.242188 280.710938 473.652344 281.925781 476.03125 283.203125 C 478.410156 284.480469 480.757812 285.8125 483.070312 287.203125 C 485.382812 288.59375 487.660156 290.042969 489.902344 291.542969 C 492.148438 293.046875 494.351562 294.601562 496.515625 296.214844 C 498.683594 297.824219 500.808594 299.488281 502.894531 301.203125 C 504.980469 302.917969 507.023438 304.679688 509.019531 306.496094 C 511.019531 308.3125 512.972656 310.171875 514.878906 312.085938 C 516.789062 313.996094 518.648438 315.949219 520.460938 317.953125 C 522.269531 319.953125 524.03125 322 525.746094 324.085938 C 527.457031 326.175781 529.117188 328.304688 530.722656 330.472656 C 532.332031 332.644531 533.882812 334.851562 535.382812 337.097656 C 536.882812 339.339844 538.328125 341.621094 539.714844 343.9375 C 541.101562 346.253906 542.433594 348.605469 543.707031 350.984375 C 544.976562 353.367188 546.191406 355.777344 547.347656 358.21875 C 548.5 360.660156 549.597656 363.128906 550.628906 365.621094 C 551.664062 368.117188 552.636719 370.636719 553.546875 373.179688 C 554.457031 375.722656 555.304688 378.285156 556.089844 380.867188 C 556.875 383.453125 557.597656 386.054688 558.253906 388.671875 C 558.914062 391.292969 559.507812 393.925781 560.035156 396.574219 C 560.566406 399.222656 561.027344 401.882812 561.429688 404.554688 C 561.828125 407.222656 562.160156 409.902344 562.425781 412.589844 C 562.695312 415.277344 562.898438 417.96875 563.03125 420.667969 C 563.167969 423.363281 563.238281 426.0625 563.242188 428.765625 Z M 563.320312 428.765625 " fill-opacity="1" fill-rule="nonzero"/></svg>