<svg xmlns="http://www.w3.org/2000/svg" xmlns:xlink="http://www.w3.org/1999/xlink" width="1080" zoomAndPan="magnify" viewBox="0 0 810 809.999993" height="1080" preserveAspectRatio="xMidYMid meet" version="1.0"><path fill="#000000" d="M 701.089844 338.332031 C 700.257812 338.332031 699.433594 338.261719 698.613281 338.125 C 697.792969 337.984375 696.988281 337.785156 696.203125 337.515625 C 695.414062 337.246094 694.652344 336.917969 693.917969 336.527344 C 693.183594 336.136719 692.488281 335.6875 691.828125 335.183594 C 691.164062 334.679688 690.550781 334.125 689.980469 333.519531 C 689.40625 332.914062 688.890625 332.269531 688.425781 331.578125 C 687.957031 330.890625 687.550781 330.167969 687.203125 329.414062 C 686.855469 328.660156 686.570312 327.882812 686.347656 327.078125 C 685.292969 323.273438 684.160156 319.488281 682.949219 315.726562 C 681.738281 311.964844 680.453125 308.230469 679.09375 304.523438 C 677.730469 300.8125 676.292969 297.132812 674.78125 293.484375 C 673.273438 289.832031 671.6875 286.214844 670.027344 282.628906 C 668.371094 279.042969 666.640625 275.492188 664.835938 271.976562 C 663.035156 268.460938 661.160156 264.984375 659.214844 261.542969 C 657.269531 258.105469 655.257812 254.703125 653.175781 251.347656 C 651.09375 247.988281 648.941406 244.675781 646.726562 241.402344 C 644.507812 238.132812 642.226562 234.910156 639.875 231.730469 C 637.527344 228.554688 635.117188 225.425781 632.640625 222.34375 C 630.164062 219.265625 627.625 216.238281 625.027344 213.257812 C 622.429688 210.28125 619.769531 207.359375 617.050781 204.492188 C 614.335938 201.621094 611.558594 198.808594 608.726562 196.054688 C 605.894531 193.296875 603.007812 190.601562 600.066406 187.960938 C 597.121094 185.320312 594.128906 182.742188 591.082031 180.226562 C 588.035156 177.710938 584.9375 175.253906 581.789062 172.863281 C 578.644531 170.472656 575.449219 168.144531 572.207031 165.882812 C 568.96875 163.621094 565.679688 161.425781 562.351562 159.296875 C 559.019531 157.167969 555.648438 155.109375 552.234375 153.117188 C 548.820312 151.128906 545.363281 149.207031 541.871094 147.355469 C 538.378906 145.503906 534.851562 143.722656 531.285156 142.015625 C 527.722656 140.308594 524.121094 138.675781 520.492188 137.113281 C 516.859375 135.550781 513.199219 134.0625 509.507812 132.652344 C 505.8125 131.238281 502.09375 129.898438 498.347656 128.636719 C 494.601562 127.375 490.832031 126.191406 487.035156 125.082031 C 483.242188 123.972656 479.425781 122.941406 475.589844 121.988281 C 471.753906 121.035156 467.898438 120.160156 464.027344 119.363281 C 460.15625 118.566406 456.269531 117.847656 452.367188 117.207031 C 448.464844 116.566406 444.550781 116.007812 440.628906 115.527344 C 436.703125 115.046875 432.773438 114.648438 428.832031 114.324219 C 424.890625 114.003906 420.945312 113.765625 416.996094 113.605469 C 413.046875 113.445312 409.09375 113.363281 405.140625 113.363281 C 401.1875 113.363281 397.234375 113.445312 393.285156 113.605469 C 389.335938 113.765625 385.390625 114.003906 381.449219 114.324219 C 377.507812 114.648438 373.574219 115.046875 369.652344 115.527344 C 365.726562 116.007812 361.8125 116.566406 357.914062 117.207031 C 354.011719 117.847656 350.125 118.566406 346.253906 119.363281 C 342.378906 120.160156 338.527344 121.035156 334.691406 121.988281 C 330.851562 122.941406 327.039062 123.972656 323.242188 125.082031 C 319.449219 126.191406 315.679688 127.375 311.929688 128.636719 C 308.183594 129.898438 304.464844 131.238281 300.773438 132.652344 C 297.082031 134.0625 293.421875 135.550781 289.789062 137.113281 C 286.15625 138.675781 282.558594 140.308594 278.992188 142.015625 C 275.429688 143.722656 271.898438 145.503906 268.40625 147.355469 C 264.914062 149.207031 261.460938 151.128906 258.046875 153.117188 C 254.632812 155.109375 251.261719 157.167969 247.929688 159.296875 C 244.597656 161.425781 241.3125 163.621094 238.070312 165.882812 C 234.828125 168.144531 231.636719 170.472656 228.488281 172.863281 C 225.34375 175.253906 222.246094 177.710938 219.199219 180.226562 C 216.152344 182.742188 213.15625 185.320312 210.214844 187.960938 C 207.273438 190.601562 204.386719 193.296875 201.554688 196.054688 C 198.722656 198.808594 195.945312 201.621094 193.226562 204.492188 C 190.511719 207.359375 187.851562 210.28125 185.253906 213.257812 C 182.652344 216.238281 180.117188 219.265625 177.640625 222.34375 C 175.164062 225.425781 172.753906 228.554688 170.402344 231.730469 C 168.054688 234.910156 165.773438 238.132812 163.554688 241.402344 C 161.335938 244.675781 159.1875 247.988281 157.105469 251.347656 C 155.023438 254.703125 153.007812 258.105469 151.0625 261.542969 C 149.121094 264.984375 147.246094 268.460938 145.441406 271.976562 C 143.640625 275.492188 141.910156 279.042969 140.25 282.628906 C 138.59375 286.214844 137.007812 289.832031 135.496094 293.484375 C 133.984375 297.132812 132.550781 300.8125 131.1875 304.523438 C 129.824219 308.230469 128.539062 311.964844 127.332031 315.726562 C 126.121094 319.488281 124.988281 323.273438 123.933594 327.078125 C 123.640625 328.023438 123.261719 328.933594 122.792969 329.804688 C 122.324219 330.675781 121.777344 331.492188 121.152344 332.257812 C 120.527344 333.023438 119.832031 333.722656 119.070312 334.355469 C 118.3125 334.984375 117.496094 335.539062 116.628906 336.011719 C 115.761719 336.488281 114.855469 336.875 113.914062 337.175781 C 112.96875 337.472656 112.007812 337.679688 111.023438 337.792969 C 110.042969 337.90625 109.058594 337.925781 108.070312 337.851562 C 107.085938 337.773438 106.113281 337.601562 105.160156 337.339844 C 104.207031 337.074219 103.289062 336.722656 102.402344 336.28125 C 101.519531 335.839844 100.683594 335.320312 99.898438 334.714844 C 99.113281 334.113281 98.394531 333.441406 97.742188 332.699219 C 97.085938 331.960938 96.507812 331.164062 96.007812 330.308594 C 95.507812 329.457031 95.09375 328.5625 94.765625 327.632812 C 94.4375 326.699219 94.203125 325.742188 94.0625 324.765625 C 93.917969 323.785156 93.871094 322.804688 93.917969 321.816406 C 93.964844 320.828125 94.105469 319.855469 94.34375 318.894531 C 95.503906 314.683594 96.753906 310.5 98.085938 306.339844 C 99.421875 302.179688 100.839844 298.046875 102.339844 293.945312 C 103.839844 289.84375 105.425781 285.769531 107.09375 281.734375 C 108.761719 277.695312 110.511719 273.691406 112.339844 269.726562 C 114.171875 265.757812 116.082031 261.832031 118.070312 257.941406 C 120.0625 254.050781 122.128906 250.203125 124.277344 246.398438 C 126.421875 242.59375 128.648438 238.832031 130.945312 235.117188 C 133.246094 231.402344 135.621094 227.738281 138.070312 224.117188 C 140.519531 220.5 143.042969 216.933594 145.636719 213.417969 C 148.230469 209.902344 150.894531 206.4375 153.632812 203.03125 C 156.367188 199.625 159.167969 196.273438 162.042969 192.980469 C 164.914062 189.683594 167.851562 186.453125 170.855469 183.277344 C 173.859375 180.101562 176.925781 176.992188 180.054688 173.941406 C 183.183594 170.890625 186.375 167.90625 189.625 164.988281 C 192.878906 162.066406 196.1875 159.214844 199.554688 156.429688 C 202.921875 153.644531 206.347656 150.929688 209.824219 148.28125 C 213.304688 145.636719 216.832031 143.0625 220.417969 140.558594 C 224 138.054688 227.632812 135.625 231.3125 133.269531 C 234.996094 130.917969 238.726562 128.636719 242.5 126.433594 C 246.273438 124.230469 250.09375 122.105469 253.953125 120.054688 C 257.816406 118.007812 261.714844 116.039062 265.65625 114.148438 C 269.597656 112.257812 273.578125 110.449219 277.59375 108.722656 C 281.609375 106.992188 285.65625 105.347656 289.738281 103.785156 C 293.820312 102.21875 297.933594 100.738281 302.074219 99.34375 C 306.21875 97.945312 310.386719 96.636719 314.582031 95.410156 C 318.777344 94.183594 322.996094 93.039062 327.238281 91.984375 C 331.480469 90.929688 335.742188 89.960938 340.023438 89.078125 C 344.304688 88.195312 348.605469 87.402344 352.917969 86.695312 C 357.230469 85.984375 361.558594 85.367188 365.898438 84.835938 C 370.238281 84.304688 374.585938 83.859375 378.941406 83.503906 C 383.300781 83.148438 387.664062 82.882812 392.03125 82.707031 C 396.398438 82.527344 400.769531 82.441406 405.140625 82.441406 C 409.511719 82.441406 413.882812 82.527344 418.25 82.707031 C 422.617188 82.882812 426.980469 83.148438 431.335938 83.503906 C 435.695312 83.859375 440.042969 84.304688 444.382812 84.835938 C 448.722656 85.367188 453.046875 85.984375 457.363281 86.695312 C 461.675781 87.402344 465.972656 88.195312 470.253906 89.078125 C 474.539062 89.960938 478.800781 90.929688 483.042969 91.984375 C 487.285156 93.039062 491.503906 94.183594 495.699219 95.410156 C 499.894531 96.636719 504.0625 97.945312 508.207031 99.34375 C 512.347656 100.738281 516.460938 102.21875 520.542969 103.785156 C 524.625 105.347656 528.671875 106.992188 532.6875 108.722656 C 536.703125 110.449219 540.679688 112.257812 544.621094 114.148438 C 548.5625 116.039062 552.464844 118.007812 556.328125 120.054688 C 560.1875 122.105469 564.003906 124.230469 567.78125 126.433594 C 571.554688 128.636719 575.285156 130.917969 578.964844 133.269531 C 582.648438 135.625 586.28125 138.054688 589.863281 140.558594 C 593.445312 143.0625 596.976562 145.636719 600.453125 148.28125 C 603.933594 150.929688 607.355469 153.644531 610.722656 156.429688 C 614.089844 159.214844 617.402344 162.066406 620.652344 164.988281 C 623.90625 167.90625 627.09375 170.890625 630.226562 173.941406 C 633.355469 176.992188 636.421875 180.101562 639.425781 183.277344 C 642.429688 186.453125 645.367188 189.683594 648.238281 192.980469 C 651.109375 196.273438 653.914062 199.625 656.648438 203.03125 C 659.382812 206.4375 662.050781 209.902344 664.644531 213.417969 C 667.238281 216.933594 669.761719 220.5 672.207031 224.117188 C 674.65625 227.738281 677.03125 231.402344 679.332031 235.117188 C 681.632812 238.832031 683.855469 242.59375 686.003906 246.398438 C 688.148438 250.203125 690.21875 254.050781 692.207031 257.941406 C 694.199219 261.832031 696.109375 265.757812 697.941406 269.726562 C 699.769531 273.691406 701.519531 277.695312 703.1875 281.734375 C 704.851562 285.773438 706.4375 289.84375 707.941406 293.945312 C 709.441406 298.046875 710.859375 302.179688 712.191406 306.339844 C 713.527344 310.5 714.773438 314.683594 715.9375 318.894531 C 716.09375 319.464844 716.21875 320.039062 716.308594 320.621094 C 716.402344 321.207031 716.457031 321.792969 716.480469 322.382812 C 716.503906 322.972656 716.496094 323.558594 716.449219 324.148438 C 716.40625 324.738281 716.328125 325.320312 716.214844 325.902344 C 716.101562 326.480469 715.957031 327.050781 715.78125 327.613281 C 715.601562 328.175781 715.390625 328.726562 715.148438 329.265625 C 714.910156 329.804688 714.636719 330.328125 714.335938 330.832031 C 714.03125 331.339844 713.703125 331.828125 713.34375 332.296875 C 712.984375 332.765625 712.601562 333.214844 712.191406 333.640625 C 711.78125 334.0625 711.351562 334.464844 710.894531 334.839844 C 710.4375 335.214844 709.960938 335.5625 709.464844 335.878906 C 708.96875 336.199219 708.457031 336.492188 707.925781 336.753906 C 707.398438 337.011719 706.855469 337.242188 706.296875 337.441406 C 705.742188 337.640625 705.175781 337.804688 704.601562 337.9375 C 704.023438 338.070312 703.445312 338.171875 702.859375 338.238281 C 702.269531 338.304688 701.683594 338.335938 701.089844 338.332031 Z M 701.089844 338.332031 " fill-opacity="1" fill-rule="nonzero"/><path fill="#000000" d="M 405.089844 727.007812 C 400.71875 727.011719 396.347656 726.929688 391.980469 726.753906 C 387.613281 726.582031 383.25 726.320312 378.894531 725.96875 C 374.535156 725.617188 370.1875 725.179688 365.847656 724.652344 C 361.507812 724.125 357.183594 723.507812 352.867188 722.804688 C 348.554688 722.101562 344.257812 721.3125 339.976562 720.433594 C 335.691406 719.554688 331.429688 718.589844 327.1875 717.539062 C 322.945312 716.488281 318.726562 715.351562 314.53125 714.125 C 310.332031 712.902344 306.164062 711.59375 302.019531 710.203125 C 297.878906 708.808594 293.765625 707.332031 289.683594 705.773438 C 285.597656 704.210938 281.550781 702.570312 277.535156 700.84375 C 273.519531 699.121094 269.539062 697.3125 265.597656 695.425781 C 261.65625 693.539062 257.753906 691.574219 253.890625 689.527344 C 250.027344 687.484375 246.210938 685.359375 242.433594 683.160156 C 238.65625 680.957031 234.929688 678.679688 231.246094 676.328125 C 227.5625 673.976562 223.929688 671.550781 220.34375 669.050781 C 216.761719 666.546875 213.230469 663.976562 209.75 661.332031 C 206.269531 658.6875 202.847656 655.972656 199.476562 653.191406 C 196.109375 650.40625 192.796875 647.558594 189.546875 644.640625 C 186.292969 641.722656 183.101562 638.738281 179.972656 635.691406 C 176.839844 632.640625 173.773438 629.53125 170.769531 626.359375 C 167.761719 623.1875 164.824219 619.953125 161.953125 616.660156 C 159.078125 613.371094 156.277344 610.019531 153.539062 606.613281 C 150.804688 603.207031 148.136719 599.746094 145.542969 596.230469 C 142.949219 592.71875 140.425781 589.152344 137.976562 585.535156 C 135.523438 581.917969 133.148438 578.25 130.847656 574.539062 C 128.550781 570.824219 126.324219 567.0625 124.175781 563.257812 C 122.03125 559.453125 119.960938 555.609375 117.96875 551.71875 C 115.980469 547.832031 114.070312 543.902344 112.238281 539.9375 C 110.40625 535.972656 108.660156 531.96875 106.992188 527.929688 C 105.324219 523.894531 103.738281 519.824219 102.238281 515.722656 C 100.734375 511.621094 99.316406 507.488281 97.984375 503.328125 C 96.652344 499.171875 95.402344 494.984375 94.238281 490.773438 C 94.003906 489.816406 93.863281 488.839844 93.816406 487.855469 C 93.769531 486.867188 93.816406 485.882812 93.960938 484.90625 C 94.101562 483.925781 94.335938 482.972656 94.664062 482.039062 C 94.992188 481.105469 95.40625 480.214844 95.90625 479.359375 C 96.40625 478.507812 96.984375 477.710938 97.636719 476.96875 C 98.292969 476.226562 99.011719 475.554688 99.796875 474.953125 C 100.582031 474.351562 101.414062 473.828125 102.300781 473.386719 C 103.1875 472.945312 104.105469 472.59375 105.058594 472.332031 C 106.011719 472.066406 106.980469 471.898438 107.96875 471.820312 C 108.953125 471.742188 109.9375 471.761719 110.921875 471.875 C 111.90625 471.988281 112.867188 472.195312 113.808594 472.496094 C 114.753906 472.796875 115.660156 473.183594 116.527344 473.65625 C 117.394531 474.132812 118.207031 474.683594 118.96875 475.316406 C 119.730469 475.949219 120.425781 476.644531 121.050781 477.410156 C 121.675781 478.175781 122.222656 478.996094 122.691406 479.867188 C 123.15625 480.738281 123.539062 481.644531 123.828125 482.589844 C 124.886719 486.398438 126.019531 490.179688 127.226562 493.941406 C 128.4375 497.703125 129.722656 501.4375 131.085938 505.148438 C 132.445312 508.855469 133.882812 512.535156 135.394531 516.1875 C 136.90625 519.835938 138.492188 523.453125 140.148438 527.039062 C 141.808594 530.625 143.539062 534.175781 145.339844 537.695312 C 147.144531 541.210938 149.015625 544.6875 150.960938 548.125 C 152.90625 551.566406 154.917969 554.964844 157.003906 558.324219 C 159.085938 561.679688 161.234375 564.996094 163.453125 568.265625 C 165.667969 571.535156 167.953125 574.761719 170.300781 577.9375 C 172.648438 581.117188 175.0625 584.246094 177.539062 587.324219 C 180.011719 590.40625 182.550781 593.433594 185.148438 596.410156 C 187.75 599.386719 190.40625 602.308594 193.125 605.179688 C 195.84375 608.046875 198.617188 610.859375 201.449219 613.617188 C 204.285156 616.371094 207.171875 619.070312 210.113281 621.710938 C 213.054688 624.347656 216.050781 626.925781 219.097656 629.445312 C 222.144531 631.960938 225.238281 634.414062 228.386719 636.808594 C 231.53125 639.199219 234.726562 641.523438 237.96875 643.785156 C 241.210938 646.046875 244.496094 648.242188 247.828125 650.371094 C 251.15625 652.5 254.53125 654.558594 257.945312 656.550781 C 261.359375 658.542969 264.8125 660.464844 268.304688 662.316406 C 271.796875 664.167969 275.328125 665.945312 278.890625 667.652344 C 282.457031 669.359375 286.054688 670.996094 289.6875 672.558594 C 293.316406 674.121094 296.980469 675.605469 300.671875 677.019531 C 304.363281 678.433594 308.082031 679.769531 311.828125 681.03125 C 315.574219 682.292969 319.347656 683.480469 323.140625 684.585938 C 326.933594 685.695312 330.75 686.726562 334.585938 687.679688 C 338.425781 688.636719 342.277344 689.511719 346.148438 690.308594 C 350.023438 691.105469 353.910156 691.824219 357.8125 692.460938 C 361.710938 693.101562 365.625 693.660156 369.550781 694.140625 C 373.472656 694.621094 377.40625 695.023438 381.347656 695.34375 C 385.285156 695.664062 389.230469 695.90625 393.183594 696.066406 C 397.132812 696.226562 401.082031 696.304688 405.039062 696.308594 C 408.992188 696.304688 412.941406 696.226562 416.894531 696.066406 C 420.84375 695.90625 424.789062 695.664062 428.730469 695.34375 C 432.667969 695.023438 436.601562 694.621094 440.527344 694.140625 C 444.449219 693.660156 448.363281 693.101562 452.265625 692.460938 C 456.164062 691.824219 460.050781 691.105469 463.925781 690.308594 C 467.796875 689.511719 471.652344 688.636719 475.488281 687.679688 C 479.324219 686.726562 483.140625 685.695312 486.933594 684.585938 C 490.730469 683.480469 494.5 682.292969 498.246094 681.03125 C 501.992188 679.769531 505.710938 678.433594 509.402344 677.019531 C 513.09375 675.605469 516.757812 674.121094 520.390625 672.558594 C 524.019531 670.996094 527.617188 669.359375 531.183594 667.652344 C 534.75 665.945312 538.277344 664.167969 541.769531 662.316406 C 545.261719 660.464844 548.714844 658.542969 552.128906 656.550781 C 555.546875 654.558594 558.917969 652.5 562.25 650.371094 C 565.578125 648.242188 568.863281 646.046875 572.105469 643.785156 C 575.347656 641.523438 578.542969 639.199219 581.6875 636.808594 C 584.835938 634.414062 587.933594 631.960938 590.980469 629.445312 C 594.027344 626.925781 597.019531 624.347656 599.960938 621.710938 C 602.90625 619.070312 605.792969 616.371094 608.625 613.617188 C 611.457031 610.859375 614.230469 608.046875 616.949219 605.179688 C 619.667969 602.308594 622.324219 599.386719 624.925781 596.410156 C 627.523438 593.433594 630.0625 590.40625 632.539062 587.324219 C 635.011719 584.246094 637.425781 581.117188 639.773438 577.9375 C 642.121094 574.761719 644.40625 571.535156 646.621094 568.265625 C 648.839844 564.996094 650.988281 561.679688 653.074219 558.324219 C 655.15625 554.964844 657.167969 551.566406 659.113281 548.125 C 661.058594 544.6875 662.929688 541.210938 664.734375 537.695312 C 666.535156 534.175781 668.265625 530.625 669.925781 527.039062 C 671.585938 523.453125 673.167969 519.835938 674.679688 516.1875 C 676.191406 512.535156 677.628906 508.855469 678.988281 505.148438 C 680.351562 501.4375 681.636719 497.703125 682.847656 493.941406 C 684.054688 490.179688 685.1875 486.398438 686.246094 482.589844 C 686.539062 481.644531 686.917969 480.738281 687.382812 479.867188 C 687.851562 478.996094 688.398438 478.175781 689.023438 477.410156 C 689.652344 476.644531 690.34375 475.949219 691.105469 475.316406 C 691.867188 474.683594 692.679688 474.132812 693.546875 473.65625 C 694.417969 473.183594 695.320312 472.796875 696.265625 472.496094 C 697.207031 472.195312 698.171875 471.988281 699.152344 471.875 C 700.136719 471.761719 701.121094 471.742188 702.105469 471.820312 C 703.09375 471.898438 704.0625 472.066406 705.015625 472.332031 C 705.96875 472.59375 706.890625 472.945312 707.773438 473.386719 C 708.660156 473.828125 709.496094 474.351562 710.277344 474.953125 C 711.0625 475.554688 711.78125 476.226562 712.4375 476.96875 C 713.089844 477.710938 713.667969 478.507812 714.167969 479.359375 C 714.667969 480.214844 715.082031 481.105469 715.410156 482.039062 C 715.738281 482.972656 715.972656 483.925781 716.117188 484.90625 C 716.257812 485.882812 716.304688 486.867188 716.257812 487.855469 C 716.210938 488.839844 716.070312 489.816406 715.835938 490.773438 C 714.671875 494.984375 713.425781 499.167969 712.089844 503.328125 C 710.757812 507.484375 709.339844 511.617188 707.839844 515.714844 C 706.339844 519.816406 704.753906 523.886719 703.085938 527.921875 C 701.421875 531.960938 699.671875 535.960938 697.839844 539.925781 C 696.011719 543.890625 694.101562 547.816406 692.113281 551.707031 C 690.121094 555.59375 688.054688 559.4375 685.90625 563.242188 C 683.761719 567.046875 681.535156 570.804688 679.238281 574.519531 C 676.9375 578.230469 674.5625 581.894531 672.113281 585.511719 C 669.664062 589.128906 667.144531 592.695312 664.550781 596.210938 C 661.957031 599.722656 659.289062 603.183594 656.554688 606.589844 C 653.820312 609.996094 651.015625 613.34375 648.144531 616.636719 C 645.273438 619.925781 642.335938 623.160156 639.332031 626.332031 C 636.332031 629.503906 633.265625 632.613281 630.132812 635.660156 C 627.003906 638.707031 623.8125 641.691406 620.5625 644.609375 C 617.3125 647.527344 614 650.378906 610.632812 653.160156 C 607.265625 655.945312 603.84375 658.65625 600.367188 661.300781 C 596.886719 663.945312 593.355469 666.515625 589.773438 669.019531 C 586.191406 671.519531 582.558594 673.945312 578.878906 676.296875 C 575.195312 678.648438 571.46875 680.925781 567.695312 683.128906 C 563.917969 685.328125 560.101562 687.453125 556.242188 689.5 C 552.378906 691.542969 548.480469 693.511719 544.539062 695.398438 C 540.597656 697.285156 536.621094 699.089844 532.605469 700.816406 C 528.589844 702.542969 524.542969 704.183594 520.460938 705.746094 C 516.378906 707.308594 512.269531 708.785156 508.125 710.179688 C 503.984375 711.570312 499.816406 712.878906 495.621094 714.105469 C 491.425781 715.328125 487.210938 716.464844 482.96875 717.519531 C 478.726562 718.570312 474.464844 719.539062 470.183594 720.417969 C 465.90625 721.296875 461.609375 722.085938 457.292969 722.792969 C 452.980469 723.496094 448.65625 724.113281 444.320312 724.640625 C 439.980469 725.167969 435.632812 725.609375 431.277344 725.960938 C 426.921875 726.3125 422.558594 726.578125 418.195312 726.75 C 413.828125 726.925781 409.457031 727.011719 405.089844 727.007812 Z M 405.089844 727.007812 " fill-opacity="1" fill-rule="nonzero"/><path fill="#000000" d="M 701.089844 338.332031 C 698.800781 338.347656 696.613281 337.871094 694.539062 336.902344 L 583.550781 284.722656 C 582.683594 284.265625 581.867188 283.730469 581.105469 283.121094 C 580.339844 282.507812 579.640625 281.828125 579.007812 281.082031 C 578.371094 280.332031 577.816406 279.535156 577.332031 278.679688 C 576.851562 277.828125 576.457031 276.9375 576.148438 276.007812 C 575.835938 275.078125 575.617188 274.128906 575.488281 273.160156 C 575.363281 272.1875 575.328125 271.214844 575.386719 270.234375 C 575.441406 269.257812 575.59375 268.296875 575.835938 267.347656 C 576.078125 266.398438 576.410156 265.480469 576.828125 264.597656 C 577.246094 263.710938 577.746094 262.871094 578.324219 262.082031 C 578.902344 261.292969 579.550781 260.566406 580.269531 259.898438 C 580.988281 259.234375 581.765625 258.640625 582.597656 258.125 C 583.429688 257.605469 584.300781 257.171875 585.214844 256.820312 C 586.132812 256.46875 587.070312 256.210938 588.035156 256.039062 C 589 255.867188 589.972656 255.789062 590.953125 255.804688 C 591.933594 255.820312 592.902344 255.929688 593.863281 256.128906 C 594.820312 256.328125 595.753906 256.621094 596.65625 256.996094 L 693.71875 302.527344 L 739.382812 205.535156 C 739.839844 204.671875 740.375 203.855469 740.988281 203.089844 C 741.601562 202.328125 742.285156 201.628906 743.03125 200.996094 C 743.777344 200.363281 744.578125 199.804688 745.433594 199.324219 C 746.285156 198.84375 747.175781 198.449219 748.105469 198.140625 C 749.035156 197.828125 749.988281 197.609375 750.957031 197.480469 C 751.929688 197.351562 752.90625 197.320312 753.882812 197.375 C 754.863281 197.433594 755.824219 197.585938 756.773438 197.828125 C 757.722656 198.070312 758.640625 198.402344 759.527344 198.820312 C 760.414062 199.238281 761.253906 199.734375 762.042969 200.316406 C 762.832031 200.894531 763.5625 201.542969 764.226562 202.257812 C 764.894531 202.976562 765.488281 203.75 766.003906 204.582031 C 766.523438 205.414062 766.957031 206.285156 767.308594 207.199219 C 767.660156 208.117188 767.921875 209.054688 768.089844 210.019531 C 768.261719 210.984375 768.339844 211.953125 768.324219 212.933594 C 768.308594 213.914062 768.203125 214.882812 768 215.839844 C 767.800781 216.796875 767.511719 217.730469 767.132812 218.632812 L 714.914062 329.535156 C 714.296875 330.847656 713.507812 332.042969 712.546875 333.132812 C 711.589844 334.21875 710.5 335.152344 709.273438 335.929688 C 708.050781 336.710938 706.746094 337.304688 705.355469 337.710938 C 703.960938 338.121094 702.542969 338.328125 701.089844 338.332031 Z M 701.089844 338.332031 " fill-opacity="1" fill-rule="nonzero"/><path fill="#000000" d="M 56.972656 612.933594 C 56.324219 612.933594 55.683594 612.894531 55.042969 612.816406 C 54.402344 612.734375 53.769531 612.617188 53.144531 612.457031 C 52.519531 612.296875 51.90625 612.101562 51.304688 611.863281 C 50.707031 611.628906 50.121094 611.355469 49.558594 611.042969 C 48.992188 610.734375 48.445312 610.390625 47.925781 610.011719 C 47.402344 609.632812 46.90625 609.226562 46.433594 608.785156 C 45.964844 608.34375 45.523438 607.875 45.109375 607.378906 C 44.699219 606.882812 44.320312 606.359375 43.972656 605.816406 C 43.628906 605.273438 43.316406 604.710938 43.042969 604.125 C 42.765625 603.542969 42.53125 602.945312 42.332031 602.332031 C 42.132812 601.71875 41.972656 601.09375 41.851562 600.460938 C 41.730469 599.828125 41.648438 599.191406 41.609375 598.546875 C 41.566406 597.902344 41.566406 597.261719 41.609375 596.617188 C 41.648438 595.972656 41.730469 595.335938 41.851562 594.703125 C 41.972656 594.066406 42.132812 593.445312 42.332031 592.832031 C 42.53125 592.21875 42.769531 591.621094 43.046875 591.039062 L 95.265625 480.132812 C 95.691406 479.21875 96.207031 478.355469 96.804688 477.542969 C 97.40625 476.726562 98.078125 475.980469 98.824219 475.300781 C 99.574219 474.621094 100.378906 474.019531 101.246094 473.496094 C 102.113281 472.976562 103.019531 472.542969 103.972656 472.203125 C 104.921875 471.859375 105.898438 471.613281 106.898438 471.464844 C 107.898438 471.3125 108.902344 471.261719 109.914062 471.3125 C 110.921875 471.359375 111.917969 471.507812 112.898438 471.753906 C 113.878906 471.996094 114.828125 472.335938 115.742188 472.769531 L 226.730469 524.945312 C 227.597656 525.402344 228.410156 525.9375 229.175781 526.550781 C 229.941406 527.164062 230.640625 527.84375 231.273438 528.589844 C 231.90625 529.335938 232.464844 530.136719 232.945312 530.988281 C 233.425781 531.84375 233.824219 532.734375 234.132812 533.664062 C 234.445312 534.589844 234.664062 535.539062 234.789062 536.511719 C 234.917969 537.484375 234.953125 538.457031 234.894531 539.433594 C 234.835938 540.410156 234.6875 541.375 234.445312 542.324219 C 234.199219 543.273438 233.871094 544.1875 233.453125 545.074219 C 233.035156 545.960938 232.535156 546.796875 231.957031 547.585938 C 231.375 548.378906 230.726562 549.105469 230.007812 549.773438 C 229.289062 550.4375 228.515625 551.03125 227.683594 551.546875 C 226.851562 552.066406 225.980469 552.5 225.0625 552.847656 C 224.148438 553.199219 223.207031 553.460938 222.242188 553.632812 C 221.277344 553.800781 220.304688 553.878906 219.328125 553.863281 C 218.347656 553.851562 217.378906 553.742188 216.417969 553.542969 C 215.457031 553.339844 214.527344 553.050781 213.625 552.671875 L 116.457031 507.144531 L 70.792969 604.132812 C 70.175781 605.445312 69.386719 606.644531 68.425781 607.730469 C 67.46875 608.816406 66.378906 609.75 65.15625 610.527344 C 63.929688 611.308594 62.625 611.902344 61.234375 612.308594 C 59.839844 612.71875 58.421875 612.925781 56.972656 612.933594 Z M 56.972656 612.933594 " fill-opacity="1" fill-rule="nonzero"/></svg>