<svg xmlns="http://www.w3.org/2000/svg" xmlns:xlink="http://www.w3.org/1999/xlink" width="1080" zoomAndPan="magnify" viewBox="0 0 810 809.999993" height="1080" preserveAspectRatio="xMidYMid meet" version="1.0"><defs><clipPath id="7352c65a80"><path d="M 38 90 L 771.980469 90 L 771.980469 720.648438 L 38 720.648438 Z M 38 90 " clip-rule="nonzero"/></clipPath></defs><g clip-path="url(#7352c65a80)"><path fill="#000000" d="M 405.589844 90.351562 C 390.441406 90.351562 375.296875 97.679688 366.945312 112.367188 L 59.804688 652.574219 C 43.113281 681.945312 64.714844 720.015625 98.476562 720.015625 L 712.699219 720.015625 C 746.464844 720.015625 768.058594 681.925781 751.371094 652.546875 L 444.230469 112.367188 C 435.878906 97.679688 420.734375 90.351562 405.589844 90.351562 Z M 405.589844 118.519531 C 410.585938 118.519531 415.589844 121.308594 418.757812 126.878906 L 725.894531 667.03125 L 725.867188 667.03125 C 732.191406 678.160156 724.984375 690.703125 712.699219 690.703125 L 98.476562 690.703125 C 86.195312 690.703125 78.964844 678.171875 85.28125 667.058594 L 392.421875 126.878906 C 395.589844 121.308594 400.589844 118.519531 405.589844 118.519531 Z M 171.125 118.921875 C 169.730469 118.90625 168.359375 119.085938 167.011719 119.460938 C 165.664062 119.835938 164.398438 120.394531 163.210938 121.132812 C 162.027344 121.867188 160.964844 122.757812 160.035156 123.800781 C 159.101562 124.839844 158.332031 125.992188 157.730469 127.253906 C 157.125 128.511719 156.710938 129.832031 156.488281 131.210938 C 156.261719 132.589844 156.234375 133.972656 156.402344 135.363281 C 156.574219 136.75 156.933594 138.085938 157.484375 139.367188 C 158.039062 140.652344 158.757812 141.832031 159.648438 142.910156 L 218.269531 216.195312 C 218.871094 216.945312 219.539062 217.632812 220.277344 218.253906 C 221.015625 218.875 221.804688 219.417969 222.648438 219.882812 C 223.492188 220.347656 224.371094 220.726562 225.289062 221.019531 C 226.207031 221.3125 227.144531 221.511719 228.101562 221.617188 C 229.058594 221.722656 230.019531 221.734375 230.980469 221.652344 C 231.9375 221.570312 232.882812 221.398438 233.804688 221.128906 C 234.730469 220.859375 235.621094 220.503906 236.476562 220.0625 C 237.332031 219.617188 238.136719 219.097656 238.886719 218.492188 C 239.640625 217.890625 240.328125 217.222656 240.945312 216.484375 C 241.566406 215.75 242.109375 214.957031 242.574219 214.113281 C 243.039062 213.269531 243.417969 212.390625 243.707031 211.46875 C 243.996094 210.550781 244.195312 209.613281 244.300781 208.65625 C 244.410156 207.699219 244.417969 206.742188 244.335938 205.78125 C 244.253906 204.820312 244.078125 203.878906 243.808594 202.953125 C 243.539062 202.027344 243.183594 201.136719 242.742188 200.285156 C 242.296875 199.429688 241.773438 198.625 241.171875 197.875 L 182.546875 124.589844 C 181.871094 123.71875 181.105469 122.933594 180.25 122.234375 C 179.394531 121.535156 178.472656 120.941406 177.484375 120.449219 C 176.496094 119.957031 175.464844 119.585938 174.390625 119.328125 C 173.320312 119.070312 172.230469 118.933594 171.125 118.921875 Z M 639.621094 118.949219 C 638.554688 118.992188 637.507812 119.148438 636.476562 119.417969 C 635.441406 119.691406 634.453125 120.070312 633.503906 120.554688 C 632.554688 121.042969 631.667969 121.625 630.847656 122.308594 C 630.023438 122.988281 629.285156 123.75 628.628906 124.589844 L 570.007812 197.875 C 569.40625 198.625 568.882812 199.429688 568.441406 200.285156 C 567.996094 201.136719 567.640625 202.027344 567.375 202.953125 C 567.105469 203.878906 566.929688 204.820312 566.847656 205.777344 C 566.765625 206.738281 566.777344 207.695312 566.882812 208.652344 C 566.992188 209.609375 567.1875 210.546875 567.480469 211.464844 C 567.769531 212.382812 568.148438 213.265625 568.613281 214.105469 C 569.078125 214.949219 569.621094 215.742188 570.238281 216.476562 C 570.859375 217.214844 571.546875 217.882812 572.296875 218.484375 C 573.050781 219.085938 573.851562 219.609375 574.707031 220.050781 C 575.5625 220.496094 576.453125 220.851562 577.375 221.117188 C 578.300781 221.386719 579.242188 221.5625 580.203125 221.644531 C 581.160156 221.726562 582.121094 221.714844 583.078125 221.609375 C 584.035156 221.5 584.972656 221.304688 585.886719 221.011719 C 586.804688 220.722656 587.6875 220.34375 588.53125 219.878906 C 589.375 219.414062 590.164062 218.871094 590.898438 218.253906 C 591.636719 217.632812 592.304688 216.945312 592.90625 216.195312 L 651.53125 142.910156 C 652.429688 141.820312 653.152344 140.621094 653.707031 139.320312 C 654.257812 138.019531 654.613281 136.664062 654.773438 135.257812 C 654.933594 133.855469 654.894531 132.453125 654.648438 131.0625 C 654.402344 129.667969 653.964844 128.339844 653.335938 127.074219 C 652.707031 125.804688 651.910156 124.65625 650.949219 123.621094 C 649.988281 122.582031 648.898438 121.703125 647.679688 120.984375 C 646.464844 120.261719 645.167969 119.730469 643.796875 119.382812 C 642.425781 119.039062 641.035156 118.894531 639.621094 118.949219 Z M 82.648438 221.605469 C 81.832031 221.625 81.023438 221.710938 80.21875 221.863281 C 79.417969 222.019531 78.632812 222.238281 77.867188 222.523438 C 77.101562 222.808594 76.367188 223.152344 75.660156 223.5625 C 74.953125 223.96875 74.285156 224.433594 73.652344 224.953125 C 73.023438 225.472656 72.441406 226.042969 71.90625 226.660156 C 71.371094 227.277344 70.890625 227.933594 70.464844 228.632812 C 70.042969 229.332031 69.675781 230.058594 69.375 230.816406 C 69.070312 231.574219 68.832031 232.355469 68.660156 233.152344 C 68.488281 233.949219 68.378906 234.757812 68.34375 235.574219 C 68.304688 236.390625 68.335938 237.203125 68.433594 238.015625 C 68.53125 238.824219 68.695312 239.621094 68.925781 240.40625 C 69.15625 241.191406 69.449219 241.949219 69.808594 242.683594 C 70.167969 243.417969 70.582031 244.117188 71.058594 244.78125 C 71.535156 245.445312 72.058594 246.066406 72.636719 246.644531 C 73.21875 247.21875 73.839844 247.742188 74.507812 248.214844 C 75.171875 248.6875 75.875 249.101562 76.609375 249.457031 L 164.542969 293.429688 C 165.402344 293.859375 166.296875 294.203125 167.226562 294.457031 C 168.15625 294.714844 169.101562 294.875 170.0625 294.945312 C 171.023438 295.015625 171.980469 294.988281 172.933594 294.867188 C 173.890625 294.75 174.824219 294.535156 175.738281 294.234375 C 176.652344 293.929688 177.527344 293.539062 178.367188 293.0625 C 179.203125 292.585938 179.984375 292.03125 180.710938 291.398438 C 181.441406 290.769531 182.097656 290.074219 182.691406 289.3125 C 183.28125 288.550781 183.789062 287.742188 184.222656 286.878906 C 184.652344 286.019531 184.996094 285.121094 185.25 284.195312 C 185.503906 283.265625 185.664062 282.320312 185.730469 281.359375 C 185.800781 280.398438 185.773438 279.441406 185.652344 278.484375 C 185.53125 277.53125 185.320312 276.59375 185.015625 275.679688 C 184.710938 274.769531 184.316406 273.894531 183.839844 273.054688 C 183.363281 272.21875 182.808594 271.4375 182.175781 270.710938 C 181.546875 269.984375 180.847656 269.324219 180.085938 268.734375 C 179.328125 268.144531 178.515625 267.636719 177.652344 267.207031 L 89.71875 223.234375 C 87.5 222.089844 85.144531 221.546875 82.648438 221.605469 Z M 728.070312 221.605469 C 725.738281 221.621094 723.535156 222.164062 721.460938 223.234375 L 633.523438 267.207031 C 632.664062 267.636719 631.851562 268.148438 631.09375 268.738281 C 630.332031 269.328125 629.636719 269.984375 629.003906 270.710938 C 628.375 271.4375 627.820312 272.222656 627.34375 273.058594 C 626.863281 273.894531 626.472656 274.769531 626.167969 275.683594 C 625.863281 276.59375 625.652344 277.527344 625.53125 278.484375 C 625.410156 279.441406 625.386719 280.398438 625.453125 281.359375 C 625.519531 282.316406 625.683594 283.261719 625.9375 284.191406 C 626.191406 285.121094 626.53125 286.015625 626.964844 286.875 C 627.394531 287.738281 627.90625 288.546875 628.496094 289.308594 C 629.085938 290.070312 629.742188 290.765625 630.472656 291.394531 C 631.199219 292.027344 631.980469 292.578125 632.816406 293.054688 C 633.652344 293.53125 634.527344 293.921875 635.441406 294.226562 C 636.355469 294.53125 637.289062 294.742188 638.246094 294.863281 C 639.199219 294.984375 640.15625 295.011719 641.117188 294.941406 C 642.078125 294.871094 643.023438 294.710938 643.949219 294.457031 C 644.878906 294.203125 645.773438 293.859375 646.636719 293.429688 L 734.570312 249.457031 C 735.3125 249.097656 736.019531 248.679688 736.695312 248.199219 C 737.367188 247.71875 737.996094 247.1875 738.578125 246.601562 C 739.160156 246.015625 739.6875 245.386719 740.164062 244.710938 C 740.640625 244.035156 741.058594 243.324219 741.414062 242.578125 C 741.769531 241.832031 742.058594 241.0625 742.285156 240.269531 C 742.511719 239.472656 742.667969 238.667969 742.757812 237.84375 C 742.847656 237.023438 742.867188 236.199219 742.816406 235.375 C 742.769531 234.550781 742.648438 233.738281 742.460938 232.933594 C 742.273438 232.128906 742.019531 231.34375 741.699219 230.582031 C 741.378906 229.820312 740.996094 229.089844 740.554688 228.394531 C 740.109375 227.699219 739.613281 227.042969 739.058594 226.429688 C 738.503906 225.816406 737.902344 225.253906 737.253906 224.746094 C 736.605469 224.234375 735.917969 223.78125 735.191406 223.386719 C 734.464844 222.992188 733.710938 222.660156 732.929688 222.390625 C 732.148438 222.125 731.347656 221.925781 730.535156 221.792969 C 729.71875 221.660156 728.898438 221.597656 728.070312 221.605469 Z M 390.90625 294.972656 C 382.816406 294.972656 376.277344 301.539062 376.277344 309.628906 L 376.277344 514.824219 C 376.277344 522.914062 382.769531 529.480469 390.875 529.480469 L 420.246094 529.480469 C 428.335938 529.480469 434.871094 522.914062 434.871094 514.824219 L 434.898438 309.628906 C 434.898438 301.539062 428.378906 294.972656 420.273438 294.972656 Z M 53.851562 353.601562 C 52.882812 353.585938 51.917969 353.667969 50.964844 353.847656 C 50.007812 354.023438 49.082031 354.292969 48.179688 354.65625 C 47.277344 355.019531 46.421875 355.464844 45.609375 355.996094 C 44.796875 356.53125 44.046875 357.136719 43.355469 357.820312 C 42.664062 358.5 42.046875 359.246094 41.5 360.050781 C 40.957031 360.855469 40.5 361.703125 40.125 362.601562 C 39.75 363.496094 39.464844 364.421875 39.273438 365.371094 C 39.082031 366.324219 38.988281 367.285156 38.988281 368.257812 C 38.988281 369.226562 39.082031 370.191406 39.273438 371.140625 C 39.464844 372.09375 39.75 373.019531 40.125 373.914062 C 40.5 374.8125 40.957031 375.660156 41.5 376.464844 C 42.046875 377.269531 42.664062 378.011719 43.355469 378.695312 C 44.046875 379.378906 44.796875 379.984375 45.609375 380.515625 C 46.421875 381.050781 47.277344 381.496094 48.179688 381.859375 C 49.082031 382.21875 50.007812 382.492188 50.964844 382.667969 C 51.917969 382.847656 52.882812 382.925781 53.851562 382.914062 L 141.785156 382.914062 C 142.757812 382.925781 143.71875 382.84375 144.675781 382.667969 C 145.628906 382.492188 146.558594 382.21875 147.460938 381.859375 C 148.359375 381.496094 149.214844 381.050781 150.027344 380.515625 C 150.839844 379.984375 151.59375 379.378906 152.285156 378.695312 C 152.976562 378.011719 153.59375 377.269531 154.136719 376.464844 C 154.679688 375.660156 155.140625 374.808594 155.515625 373.914062 C 155.890625 373.019531 156.171875 372.09375 156.363281 371.140625 C 156.554688 370.191406 156.652344 369.226562 156.652344 368.257812 C 156.652344 367.285156 156.554688 366.324219 156.363281 365.371094 C 156.171875 364.421875 155.890625 363.496094 155.515625 362.601562 C 155.140625 361.703125 154.679688 360.855469 154.136719 360.050781 C 153.59375 359.246094 152.976562 358.5 152.285156 357.820312 C 151.59375 357.136719 150.839844 356.53125 150.027344 355.996094 C 149.214844 355.464844 148.359375 355.019531 147.460938 354.65625 C 146.558594 354.292969 145.628906 354.023438 144.675781 353.847656 C 143.71875 353.667969 142.757812 353.585938 141.785156 353.601562 Z M 669.390625 353.601562 C 668.421875 353.585938 667.457031 353.667969 666.503906 353.847656 C 665.546875 354.023438 664.621094 354.292969 663.71875 354.65625 C 662.816406 355.019531 661.960938 355.464844 661.148438 355.996094 C 660.335938 356.53125 659.585938 357.136719 658.894531 357.820312 C 658.203125 358.5 657.585938 359.246094 657.039062 360.050781 C 656.496094 360.855469 656.039062 361.703125 655.664062 362.601562 C 655.289062 363.496094 655.003906 364.421875 654.8125 365.371094 C 654.621094 366.324219 654.527344 367.285156 654.527344 368.257812 C 654.527344 369.226562 654.621094 370.191406 654.8125 371.140625 C 655.003906 372.09375 655.289062 373.019531 655.664062 373.914062 C 656.039062 374.808594 656.496094 375.660156 657.039062 376.464844 C 657.585938 377.269531 658.203125 378.011719 658.894531 378.695312 C 659.585938 379.378906 660.335938 379.984375 661.148438 380.515625 C 661.960938 381.050781 662.816406 381.496094 663.71875 381.859375 C 664.621094 382.21875 665.546875 382.492188 666.503906 382.667969 C 667.457031 382.847656 668.421875 382.925781 669.390625 382.914062 L 757.324219 382.914062 C 758.296875 382.925781 759.257812 382.847656 760.214844 382.667969 C 761.167969 382.492188 762.097656 382.21875 762.996094 381.859375 C 763.898438 381.496094 764.753906 381.050781 765.566406 380.515625 C 766.378906 379.984375 767.132812 379.378906 767.824219 378.695312 C 768.515625 378.011719 769.132812 377.269531 769.675781 376.464844 C 770.21875 375.660156 770.679688 374.808594 771.054688 373.914062 C 771.429688 373.019531 771.710938 372.09375 771.902344 371.140625 C 772.09375 370.191406 772.191406 369.226562 772.191406 368.257812 C 772.191406 367.285156 772.09375 366.324219 771.902344 365.371094 C 771.710938 364.421875 771.429688 363.496094 771.054688 362.601562 C 770.679688 361.703125 770.21875 360.855469 769.675781 360.050781 C 769.132812 359.246094 768.515625 358.5 767.824219 357.820312 C 767.132812 357.136719 766.378906 356.53125 765.566406 355.996094 C 764.753906 355.464844 763.898438 355.019531 762.996094 354.65625 C 762.097656 354.292969 761.167969 354.023438 760.214844 353.847656 C 759.257812 353.667969 758.296875 353.585938 757.324219 353.601562 Z M 390.90625 573.449219 C 382.816406 573.449219 376.277344 580.015625 376.277344 588.109375 L 376.277344 617.421875 C 376.277344 625.511719 382.800781 632.078125 390.90625 632.078125 L 420.273438 632.078125 C 428.363281 632.078125 434.898438 625.511719 434.898438 617.421875 L 434.898438 588.109375 C 434.898438 580.015625 428.378906 573.449219 420.273438 573.449219 Z M 390.90625 573.449219 " fill-opacity="1" fill-rule="nonzero"/></g></svg>