<svg xmlns="http://www.w3.org/2000/svg" xmlns:xlink="http://www.w3.org/1999/xlink" width="1080" zoomAndPan="magnify" viewBox="0 0 810 809.999993" height="1080" preserveAspectRatio="xMidYMid meet" version="1.0"><defs><clipPath id="2392c8734f"><path d="M 36.691406 36.691406 L 773.191406 36.691406 L 773.191406 773.191406 L 36.691406 773.191406 Z M 36.691406 36.691406 " clip-rule="nonzero"/></clipPath></defs><g clip-path="url(#2392c8734f)"><path fill="#000000" d="M 404.941406 36.691406 C 398.914062 36.691406 392.890625 36.839844 386.871094 37.136719 C 380.851562 37.429688 374.84375 37.875 368.847656 38.464844 C 362.847656 39.054688 356.871094 39.792969 350.90625 40.675781 C 344.945312 41.5625 339.011719 42.589844 333.097656 43.765625 C 327.1875 44.941406 321.308594 46.261719 315.464844 47.726562 C 309.617188 49.191406 303.8125 50.796875 298.042969 52.546875 C 292.277344 54.296875 286.554688 56.1875 280.882812 58.21875 C 275.207031 60.25 269.585938 62.417969 264.019531 64.722656 C 258.449219 67.027344 252.941406 69.46875 247.492188 72.046875 C 242.046875 74.625 236.664062 77.332031 231.347656 80.175781 C 226.035156 83.015625 220.792969 85.984375 215.621094 89.082031 C 210.453125 92.179688 205.363281 95.40625 200.351562 98.753906 C 195.339844 102.101562 190.414062 105.570312 185.574219 109.160156 C 180.734375 112.75 175.984375 116.457031 171.324219 120.28125 C 166.667969 124.105469 162.105469 128.039062 157.640625 132.085938 C 153.175781 136.132812 148.8125 140.289062 144.550781 144.550781 C 140.289062 148.8125 136.132812 153.175781 132.085938 157.640625 C 128.039062 162.105469 124.101562 166.667969 120.28125 171.324219 C 116.457031 175.984375 112.75 180.734375 109.160156 185.574219 C 105.570312 190.414062 102.101562 195.339844 98.753906 200.351562 C 95.402344 205.363281 92.179688 210.453125 89.082031 215.625 C 85.984375 220.792969 83.015625 226.035156 80.171875 231.347656 C 77.332031 236.664062 74.625 242.046875 72.046875 247.496094 C 69.46875 252.941406 67.027344 258.449219 64.722656 264.019531 C 62.417969 269.585938 60.246094 275.207031 58.21875 280.882812 C 56.1875 286.554688 54.296875 292.277344 52.546875 298.042969 C 50.796875 303.8125 49.191406 309.617188 47.726562 315.464844 C 46.261719 321.308594 44.941406 327.1875 43.765625 333.097656 C 42.589844 339.011719 41.5625 344.945312 40.675781 350.90625 C 39.792969 356.871094 39.054688 362.847656 38.464844 368.847656 C 37.875 374.84375 37.429688 380.851562 37.136719 386.871094 C 36.839844 392.890625 36.691406 398.914062 36.691406 404.941406 C 36.691406 410.96875 36.839844 416.992188 37.136719 423.011719 C 37.429688 429.03125 37.875 435.039062 38.464844 441.035156 C 39.054688 447.035156 39.792969 453.011719 40.675781 458.976562 C 41.5625 464.9375 42.589844 470.871094 43.765625 476.785156 C 44.941406 482.695312 46.261719 488.574219 47.726562 494.417969 C 49.191406 500.265625 50.796875 506.070312 52.546875 511.839844 C 54.296875 517.605469 56.1875 523.328125 58.21875 529 C 60.246094 534.675781 62.417969 540.296875 64.722656 545.863281 C 67.027344 551.433594 69.46875 556.941406 72.046875 562.386719 C 74.625 567.835938 77.332031 573.21875 80.171875 578.535156 C 83.015625 583.847656 85.984375 589.089844 89.082031 594.257812 C 92.179688 599.429688 95.402344 604.519531 98.753906 609.53125 C 102.101562 614.542969 105.570312 619.46875 109.160156 624.308594 C 112.75 629.148438 116.457031 633.898438 120.28125 638.558594 C 124.101562 643.214844 128.039062 647.777344 132.085938 652.242188 C 136.132812 656.707031 140.289062 661.070312 144.550781 665.332031 C 148.8125 669.59375 153.175781 673.75 157.640625 677.796875 C 162.105469 681.84375 166.667969 685.777344 171.324219 689.601562 C 175.984375 693.425781 180.734375 697.132812 185.574219 700.722656 C 190.414062 704.3125 195.339844 707.78125 200.351562 711.128906 C 205.363281 714.476562 210.453125 717.703125 215.621094 720.800781 C 220.792969 723.898438 226.035156 726.867188 231.347656 729.707031 C 236.664062 732.550781 242.046875 735.257812 247.492188 737.835938 C 252.941406 740.414062 258.449219 742.855469 264.019531 745.160156 C 269.585938 747.464844 275.207031 749.632812 280.882812 751.664062 C 286.554688 753.695312 292.277344 755.585938 298.042969 757.335938 C 303.8125 759.085938 309.617188 760.691406 315.464844 762.15625 C 321.308594 763.621094 327.1875 764.941406 333.097656 766.117188 C 339.011719 767.292969 344.945312 768.320312 350.90625 769.207031 C 356.871094 770.089844 362.847656 770.828125 368.847656 771.417969 C 374.84375 772.007812 380.851562 772.453125 386.871094 772.746094 C 392.890625 773.042969 398.914062 773.191406 404.941406 773.191406 C 410.96875 773.191406 416.992188 773.042969 423.011719 772.746094 C 429.03125 772.453125 435.039062 772.007812 441.035156 771.417969 C 447.035156 770.828125 453.011719 770.089844 458.976562 769.207031 C 464.9375 768.320312 470.871094 767.292969 476.78125 766.117188 C 482.695312 764.941406 488.574219 763.621094 494.417969 762.15625 C 500.265625 760.691406 506.070312 759.085938 511.839844 757.335938 C 517.605469 755.585938 523.328125 753.695312 529 751.664062 C 534.675781 749.632812 540.296875 747.464844 545.863281 745.160156 C 551.433594 742.855469 556.941406 740.410156 562.386719 737.835938 C 567.835938 735.257812 573.21875 732.550781 578.53125 729.707031 C 583.847656 726.867188 589.089844 723.898438 594.257812 720.800781 C 599.429688 717.703125 604.519531 714.476562 609.53125 711.128906 C 614.539062 707.78125 619.464844 704.3125 624.308594 700.722656 C 629.148438 697.132812 633.898438 693.425781 638.554688 689.601562 C 643.214844 685.777344 647.777344 681.84375 652.242188 677.796875 C 656.707031 673.75 661.070312 669.59375 665.332031 665.332031 C 669.59375 661.070312 673.75 656.707031 677.796875 652.242188 C 681.84375 647.777344 685.777344 643.214844 689.601562 638.558594 C 693.425781 633.898438 697.132812 629.148438 700.722656 624.308594 C 704.3125 619.46875 707.78125 614.542969 711.128906 609.53125 C 714.476562 604.519531 717.703125 599.429688 720.800781 594.257812 C 723.898438 589.089844 726.867188 583.847656 729.707031 578.535156 C 732.550781 573.21875 735.257812 567.835938 737.835938 562.386719 C 740.410156 556.941406 742.851562 551.433594 745.160156 545.863281 C 747.464844 540.296875 749.632812 534.675781 751.664062 529 C 753.695312 523.328125 755.585938 517.605469 757.335938 511.839844 C 759.082031 506.070312 760.691406 500.265625 762.15625 494.417969 C 763.621094 488.574219 764.941406 482.695312 766.117188 476.785156 C 767.289062 470.871094 768.320312 464.9375 769.207031 458.976562 C 770.089844 453.011719 770.828125 447.035156 771.417969 441.035156 C 772.007812 435.039062 772.453125 429.03125 772.746094 423.011719 C 773.042969 416.992188 773.191406 410.96875 773.191406 404.941406 C 773.191406 398.914062 773.042969 392.890625 772.746094 386.871094 C 772.453125 380.851562 772.007812 374.84375 771.417969 368.847656 C 770.828125 362.847656 770.089844 356.871094 769.207031 350.90625 C 768.320312 344.945312 767.289062 339.011719 766.117188 333.097656 C 764.941406 327.1875 763.621094 321.308594 762.15625 315.464844 C 760.691406 309.617188 759.082031 303.8125 757.335938 298.042969 C 755.585938 292.277344 753.695312 286.554688 751.664062 280.882812 C 749.632812 275.207031 747.464844 269.585938 745.160156 264.019531 C 742.851562 258.449219 740.410156 252.941406 737.835938 247.496094 C 735.257812 242.046875 732.550781 236.664062 729.707031 231.347656 C 726.867188 226.035156 723.898438 220.792969 720.800781 215.625 C 717.703125 210.453125 714.476562 205.363281 711.128906 200.351562 C 707.78125 195.339844 704.3125 190.414062 700.722656 185.574219 C 697.132812 180.734375 693.425781 175.984375 689.601562 171.324219 C 685.777344 166.667969 681.84375 162.105469 677.796875 157.640625 C 673.75 153.175781 669.59375 148.8125 665.332031 144.550781 C 661.070312 140.289062 656.707031 136.132812 652.242188 132.085938 C 647.777344 128.039062 643.214844 124.105469 638.554688 120.28125 C 633.898438 116.457031 629.148438 112.75 624.308594 109.160156 C 619.464844 105.570312 614.539062 102.101562 609.53125 98.753906 C 604.519531 95.40625 599.429688 92.179688 594.257812 89.082031 C 589.089844 85.984375 583.847656 83.015625 578.53125 80.175781 C 573.21875 77.332031 567.835938 74.625 562.386719 72.046875 C 556.941406 69.46875 551.433594 67.027344 545.863281 64.722656 C 540.296875 62.417969 534.675781 60.25 529 58.21875 C 523.328125 56.1875 517.605469 54.296875 511.839844 52.546875 C 506.070312 50.796875 500.265625 49.191406 494.417969 47.726562 C 488.574219 46.261719 482.695312 44.941406 476.78125 43.765625 C 470.871094 42.589844 464.9375 41.5625 458.976562 40.675781 C 453.011719 39.792969 447.035156 39.054688 441.035156 38.464844 C 435.039062 37.875 429.03125 37.429688 423.011719 37.136719 C 416.992188 36.839844 410.96875 36.691406 404.941406 36.691406 Z M 404.941406 725.675781 C 399.691406 725.675781 394.445312 725.546875 389.203125 725.289062 C 383.960938 725.03125 378.726562 724.644531 373.503906 724.132812 C 368.28125 723.617188 363.070312 722.972656 357.878906 722.203125 C 352.6875 721.433594 347.515625 720.535156 342.367188 719.511719 C 337.222656 718.488281 332.101562 717.339844 327.007812 716.0625 C 321.917969 714.789062 316.859375 713.386719 311.835938 711.863281 C 306.8125 710.339844 301.832031 708.695312 296.890625 706.925781 C 291.945312 705.15625 287.050781 703.269531 282.203125 701.261719 C 277.351562 699.253906 272.554688 697.125 267.808594 694.882812 C 263.066406 692.636719 258.378906 690.277344 253.75 687.804688 C 249.117188 685.328125 244.554688 682.742188 240.050781 680.042969 C 235.546875 677.34375 231.117188 674.539062 226.75 671.621094 C 222.386719 668.707031 218.097656 665.683594 213.878906 662.558594 C 209.664062 659.429688 205.527344 656.203125 201.46875 652.871094 C 197.414062 649.542969 193.4375 646.113281 189.550781 642.589844 C 185.660156 639.0625 181.859375 635.445312 178.148438 631.734375 C 174.4375 628.023438 170.816406 624.222656 167.292969 620.332031 C 163.769531 616.445312 160.339844 612.46875 157.011719 608.414062 C 153.679688 604.355469 150.453125 600.21875 147.324219 596.003906 C 144.199219 591.785156 141.175781 587.496094 138.261719 583.132812 C 135.34375 578.765625 132.539062 574.332031 129.839844 569.832031 C 127.140625 565.328125 124.554688 560.761719 122.078125 556.132812 C 119.605469 551.503906 117.246094 546.816406 115 542.074219 C 112.757812 537.328125 110.628906 532.53125 108.621094 527.679688 C 106.613281 522.832031 104.722656 517.933594 102.957031 512.992188 C 101.1875 508.050781 99.542969 503.070312 98.019531 498.046875 C 96.496094 493.023438 95.09375 487.964844 93.820312 482.875 C 92.542969 477.78125 91.394531 472.660156 90.371094 467.511719 C 89.347656 462.363281 88.449219 457.195312 87.679688 452.003906 C 86.910156 446.8125 86.265625 441.601562 85.75 436.378906 C 85.238281 431.15625 84.851562 425.921875 84.59375 420.679688 C 84.335938 415.4375 84.207031 410.191406 84.207031 404.941406 C 84.207031 399.691406 84.335938 394.445312 84.59375 389.203125 C 84.851562 383.960938 85.238281 378.726562 85.75 373.503906 C 86.265625 368.28125 86.910156 363.070312 87.679688 357.878906 C 88.449219 352.6875 89.347656 347.515625 90.371094 342.371094 C 91.394531 337.222656 92.542969 332.101562 93.820312 327.007812 C 95.09375 321.917969 96.496094 316.859375 98.019531 311.835938 C 99.542969 306.8125 101.1875 301.832031 102.957031 296.890625 C 104.722656 291.945312 106.613281 287.050781 108.621094 282.203125 C 110.628906 277.351562 112.757812 272.554688 115 267.808594 C 117.246094 263.066406 119.605469 258.378906 122.078125 253.75 C 124.554688 249.121094 127.140625 244.554688 129.839844 240.050781 C 132.539062 235.550781 135.34375 231.117188 138.261719 226.75 C 141.175781 222.386719 144.199219 218.097656 147.324219 213.878906 C 150.453125 209.664062 153.679688 205.527344 157.011719 201.46875 C 160.339844 197.414062 163.769531 193.4375 167.292969 189.550781 C 170.816406 185.660156 174.4375 181.859375 178.148438 178.148438 C 181.859375 174.4375 185.660156 170.816406 189.550781 167.292969 C 193.4375 163.769531 197.414062 160.339844 201.46875 157.011719 C 205.527344 153.679688 209.664062 150.453125 213.878906 147.324219 C 218.097656 144.199219 222.386719 141.175781 226.75 138.261719 C 231.117188 135.34375 235.546875 132.539062 240.050781 129.839844 C 244.554688 127.140625 249.117188 124.554688 253.75 122.078125 C 258.378906 119.605469 263.066406 117.246094 267.808594 115 C 272.554688 112.757812 277.351562 110.628906 282.203125 108.621094 C 287.050781 106.613281 291.945312 104.726562 296.890625 102.957031 C 301.832031 101.1875 306.8125 99.542969 311.835938 98.019531 C 316.859375 96.496094 321.917969 95.09375 327.007812 93.820312 C 332.101562 92.542969 337.222656 91.394531 342.367188 90.371094 C 347.515625 89.347656 352.6875 88.449219 357.878906 87.679688 C 363.070312 86.910156 368.28125 86.265625 373.503906 85.753906 C 378.726562 85.238281 383.960938 84.851562 389.203125 84.59375 C 394.445312 84.335938 399.691406 84.207031 404.941406 84.207031 C 410.191406 84.207031 415.4375 84.335938 420.679688 84.59375 C 425.921875 84.851562 431.15625 85.238281 436.378906 85.753906 C 441.601562 86.265625 446.808594 86.910156 452.003906 87.679688 C 457.195312 88.449219 462.363281 89.347656 467.511719 90.371094 C 472.660156 91.394531 477.78125 92.542969 482.875 93.820312 C 487.964844 95.09375 493.023438 96.496094 498.046875 98.019531 C 503.066406 99.542969 508.050781 101.1875 512.992188 102.957031 C 517.933594 104.726562 522.832031 106.613281 527.679688 108.621094 C 532.53125 110.628906 537.328125 112.757812 542.074219 115 C 546.816406 117.246094 551.503906 119.605469 556.132812 122.078125 C 560.761719 124.554688 565.328125 127.140625 569.832031 129.839844 C 574.332031 132.539062 578.765625 135.34375 583.132812 138.261719 C 587.496094 141.175781 591.785156 144.199219 596.003906 147.324219 C 600.21875 150.453125 604.355469 153.679688 608.414062 157.011719 C 612.46875 160.339844 616.445312 163.769531 620.332031 167.292969 C 624.222656 170.816406 628.023438 174.4375 631.734375 178.148438 C 635.445312 181.859375 639.0625 185.660156 642.589844 189.550781 C 646.113281 193.4375 649.542969 197.414062 652.871094 201.46875 C 656.203125 205.527344 659.429688 209.664062 662.558594 213.878906 C 665.683594 218.097656 668.707031 222.386719 671.621094 226.75 C 674.539062 231.117188 677.34375 235.550781 680.042969 240.050781 C 682.742188 244.554688 685.328125 249.121094 687.804688 253.75 C 690.277344 258.378906 692.636719 263.066406 694.882812 267.808594 C 697.125 272.554688 699.25 277.351562 701.261719 282.203125 C 703.269531 287.050781 705.15625 291.945312 706.925781 296.890625 C 708.695312 301.832031 710.339844 306.8125 711.863281 311.835938 C 713.386719 316.859375 714.789062 321.917969 716.0625 327.007812 C 717.339844 332.101562 718.488281 337.222656 719.511719 342.371094 C 720.535156 347.515625 721.433594 352.6875 722.203125 357.878906 C 722.972656 363.070312 723.617188 368.28125 724.128906 373.503906 C 724.644531 378.726562 725.03125 383.960938 725.289062 389.203125 C 725.546875 394.445312 725.675781 399.691406 725.675781 404.941406 C 725.675781 410.191406 725.546875 415.4375 725.289062 420.679688 C 725.03125 425.921875 724.644531 431.15625 724.128906 436.378906 C 723.617188 441.601562 722.972656 446.8125 722.203125 452.003906 C 721.433594 457.195312 720.535156 462.363281 719.511719 467.511719 C 718.488281 472.660156 717.339844 477.78125 716.0625 482.875 C 714.789062 487.964844 713.386719 493.023438 711.863281 498.046875 C 710.339844 503.070312 708.695312 508.050781 706.925781 512.992188 C 705.15625 517.933594 703.269531 522.832031 701.261719 527.679688 C 699.25 532.53125 697.125 537.328125 694.882812 542.074219 C 692.636719 546.816406 690.277344 551.503906 687.804688 556.132812 C 685.328125 560.761719 682.742188 565.328125 680.042969 569.832031 C 677.34375 574.332031 674.539062 578.765625 671.621094 583.132812 C 668.707031 587.496094 665.683594 591.785156 662.558594 596.003906 C 659.429688 600.21875 656.203125 604.355469 652.871094 608.414062 C 649.542969 612.46875 646.113281 616.445312 642.589844 620.332031 C 639.0625 624.222656 635.445312 628.023438 631.734375 631.734375 C 628.023438 635.445312 624.222656 639.0625 620.332031 642.589844 C 616.445312 646.113281 612.46875 649.542969 608.414062 652.871094 C 604.355469 656.203125 600.21875 659.429688 596.003906 662.558594 C 591.785156 665.683594 587.496094 668.707031 583.132812 671.621094 C 578.765625 674.539062 574.332031 677.34375 569.832031 680.042969 C 565.328125 682.742188 560.761719 685.328125 556.132812 687.804688 C 551.503906 690.277344 546.816406 692.636719 542.074219 694.882812 C 537.328125 697.125 532.53125 699.253906 527.679688 701.261719 C 522.832031 703.269531 517.933594 705.15625 512.992188 706.925781 C 508.050781 708.695312 503.066406 710.339844 498.046875 711.863281 C 493.023438 713.386719 487.964844 714.789062 482.875 716.0625 C 477.78125 717.339844 472.660156 718.488281 467.511719 719.511719 C 462.363281 720.535156 457.195312 721.433594 452.003906 722.203125 C 446.808594 722.972656 441.601562 723.617188 436.378906 724.132812 C 431.15625 724.644531 425.921875 725.03125 420.679688 725.289062 C 415.4375 725.546875 410.191406 725.675781 404.941406 725.675781 Z M 404.941406 725.675781 " fill-opacity="1" fill-rule="nonzero"/></g><path fill="#000000" d="M 547.488281 262.394531 C 546.9375 261.84375 546.363281 261.320312 545.761719 260.824219 C 545.160156 260.332031 544.535156 259.867188 543.886719 259.433594 C 543.242188 259 542.574219 258.601562 541.886719 258.234375 C 541.199219 257.867188 540.496094 257.535156 539.777344 257.234375 C 539.058594 256.9375 538.328125 256.675781 537.582031 256.449219 C 536.835938 256.222656 536.082031 256.035156 535.320312 255.882812 C 534.554688 255.730469 533.785156 255.617188 533.011719 255.539062 C 532.234375 255.464844 531.460938 255.425781 530.679688 255.425781 C 529.902344 255.425781 529.125 255.464844 528.351562 255.539062 C 527.574219 255.617188 526.804688 255.730469 526.042969 255.882812 C 525.277344 256.035156 524.523438 256.222656 523.78125 256.449219 C 523.035156 256.675781 522.300781 256.9375 521.582031 257.234375 C 520.863281 257.535156 520.160156 257.867188 519.472656 258.234375 C 518.789062 258.601562 518.121094 259 517.472656 259.433594 C 516.824219 259.867188 516.203125 260.332031 515.601562 260.824219 C 515 261.320312 514.421875 261.84375 513.871094 262.394531 L 404.941406 371.324219 L 295.773438 262.394531 C 295.207031 261.945312 294.625 261.523438 294.019531 261.125 C 293.417969 260.730469 292.796875 260.363281 292.160156 260.023438 C 291.523438 259.6875 290.871094 259.375 290.207031 259.097656 C 289.542969 258.816406 288.867188 258.570312 288.179688 258.351562 C 287.492188 258.132812 286.792969 257.945312 286.089844 257.792969 C 285.386719 257.636719 284.675781 257.515625 283.957031 257.425781 C 283.242188 257.335938 282.523438 257.277344 281.804688 257.253906 C 281.082031 257.230469 280.363281 257.238281 279.640625 257.277344 C 278.921875 257.320312 278.203125 257.394531 277.492188 257.5 C 276.777344 257.605469 276.070312 257.746094 275.367188 257.914062 C 274.667969 258.085938 273.976562 258.289062 273.292969 258.523438 C 272.613281 258.757812 271.941406 259.023438 271.28125 259.316406 C 270.625 259.613281 269.980469 259.9375 269.351562 260.289062 C 268.722656 260.644531 268.113281 261.023438 267.515625 261.433594 C 266.921875 261.84375 266.347656 262.277344 265.792969 262.742188 C 265.242188 263.203125 264.707031 263.6875 264.199219 264.199219 C 263.6875 264.707031 263.203125 265.242188 262.742188 265.796875 C 262.277344 266.347656 261.84375 266.921875 261.433594 267.519531 C 261.023438 268.113281 260.644531 268.722656 260.289062 269.351562 C 259.9375 269.980469 259.613281 270.625 259.316406 271.28125 C 259.019531 271.941406 258.757812 272.613281 258.523438 273.292969 C 258.289062 273.976562 258.085938 274.667969 257.914062 275.371094 C 257.746094 276.070312 257.605469 276.777344 257.5 277.492188 C 257.394531 278.203125 257.320312 278.921875 257.277344 279.640625 C 257.238281 280.363281 257.230469 281.082031 257.253906 281.804688 C 257.277344 282.523438 257.335938 283.242188 257.425781 283.957031 C 257.515625 284.675781 257.636719 285.386719 257.792969 286.089844 C 257.945312 286.792969 258.132812 287.492188 258.351562 288.179688 C 258.570312 288.867188 258.816406 289.542969 259.097656 290.207031 C 259.375 290.871094 259.6875 291.523438 260.023438 292.160156 C 260.363281 292.796875 260.730469 293.417969 261.125 294.019531 C 261.523438 294.625 261.945312 295.207031 262.394531 295.773438 L 371.324219 404.941406 L 262.394531 514.109375 C 261.738281 514.628906 261.113281 515.179688 260.519531 515.765625 C 259.921875 516.351562 259.359375 516.964844 258.828125 517.609375 C 258.300781 518.253906 257.804688 518.925781 257.34375 519.621094 C 256.882812 520.316406 256.460938 521.035156 256.078125 521.777344 C 255.691406 522.519531 255.347656 523.277344 255.042969 524.054688 C 254.738281 524.832031 254.476562 525.625 254.257812 526.429688 C 254.035156 527.234375 253.859375 528.046875 253.722656 528.871094 C 253.589844 529.695312 253.496094 530.523438 253.449219 531.359375 C 253.402344 532.191406 253.398438 533.023438 253.4375 533.859375 C 253.476562 534.691406 253.5625 535.523438 253.691406 536.347656 C 253.816406 537.171875 253.988281 537.988281 254.203125 538.796875 C 254.414062 539.601562 254.671875 540.394531 254.96875 541.175781 C 255.265625 541.957031 255.601562 542.71875 255.980469 543.460938 C 256.359375 544.207031 256.773438 544.929688 257.226562 545.628906 C 257.683594 546.332031 258.171875 547.003906 258.695312 547.65625 C 259.222656 548.304688 259.777344 548.921875 260.367188 549.515625 C 260.960938 550.105469 261.578125 550.660156 262.226562 551.1875 C 262.878906 551.710938 263.550781 552.199219 264.253906 552.65625 C 264.953125 553.109375 265.675781 553.523438 266.421875 553.902344 C 267.164062 554.28125 267.925781 554.617188 268.707031 554.914062 C 269.488281 555.210938 270.28125 555.46875 271.085938 555.679688 C 271.894531 555.894531 272.710938 556.066406 273.535156 556.191406 C 274.359375 556.320312 275.191406 556.40625 276.023438 556.445312 C 276.855469 556.484375 277.691406 556.480469 278.523438 556.433594 C 279.359375 556.386719 280.1875 556.292969 281.011719 556.160156 C 281.832031 556.023438 282.648438 555.847656 283.453125 555.625 C 284.257812 555.40625 285.050781 555.140625 285.828125 554.839844 C 286.605469 554.535156 287.363281 554.191406 288.105469 553.804688 C 288.847656 553.421875 289.566406 553 290.261719 552.539062 C 290.957031 552.078125 291.628906 551.582031 292.273438 551.054688 C 292.917969 550.523438 293.53125 549.960938 294.117188 549.363281 C 294.703125 548.769531 295.253906 548.144531 295.773438 547.488281 L 404.941406 438.558594 L 514.109375 547.488281 C 514.675781 547.9375 515.257812 548.359375 515.863281 548.757812 C 516.464844 549.152344 517.085938 549.519531 517.722656 549.859375 C 518.359375 550.195312 519.011719 550.507812 519.675781 550.785156 C 520.339844 551.066406 521.015625 551.3125 521.703125 551.53125 C 522.390625 551.75 523.089844 551.9375 523.792969 552.089844 C 524.496094 552.246094 525.207031 552.367188 525.921875 552.457031 C 526.640625 552.546875 527.359375 552.605469 528.078125 552.628906 C 528.800781 552.652344 529.519531 552.644531 530.242188 552.605469 C 530.960938 552.5625 531.679688 552.488281 532.390625 552.382812 C 533.105469 552.277344 533.8125 552.136719 534.511719 551.96875 C 535.214844 551.796875 535.90625 551.59375 536.589844 551.359375 C 537.269531 551.125 537.941406 550.863281 538.601562 550.566406 C 539.257812 550.273438 539.902344 549.945312 540.53125 549.59375 C 541.160156 549.238281 541.769531 548.859375 542.363281 548.449219 C 542.960938 548.039062 543.535156 547.605469 544.085938 547.144531 C 544.640625 546.679688 545.175781 546.195312 545.683594 545.683594 C 546.195312 545.175781 546.679688 544.640625 547.140625 544.089844 C 547.605469 543.535156 548.039062 542.960938 548.449219 542.367188 C 548.859375 541.769531 549.238281 541.160156 549.59375 540.53125 C 549.945312 539.902344 550.269531 539.257812 550.566406 538.601562 C 550.859375 537.941406 551.125 537.269531 551.359375 536.589844 C 551.59375 535.90625 551.796875 535.214844 551.96875 534.515625 C 552.136719 533.8125 552.277344 533.105469 552.382812 532.390625 C 552.488281 531.679688 552.5625 530.960938 552.605469 530.242188 C 552.644531 529.519531 552.652344 528.800781 552.628906 528.078125 C 552.605469 527.359375 552.546875 526.640625 552.457031 525.925781 C 552.367188 525.207031 552.246094 524.496094 552.089844 523.792969 C 551.9375 523.089844 551.75 522.390625 551.53125 521.703125 C 551.3125 521.015625 551.066406 520.339844 550.785156 519.675781 C 550.503906 519.011719 550.195312 518.359375 549.859375 517.722656 C 549.519531 517.085938 549.152344 516.464844 548.753906 515.863281 C 548.359375 515.257812 547.9375 514.675781 547.488281 514.109375 L 438.558594 404.941406 L 547.488281 295.773438 C 548.03125 295.222656 548.546875 294.648438 549.03125 294.050781 C 549.519531 293.449219 549.972656 292.828125 550.398438 292.1875 C 550.824219 291.542969 551.21875 290.878906 551.578125 290.199219 C 551.941406 289.515625 552.265625 288.816406 552.558594 288.105469 C 552.851562 287.390625 553.109375 286.664062 553.332031 285.925781 C 553.554688 285.183594 553.742188 284.4375 553.890625 283.679688 C 554.039062 282.921875 554.152344 282.160156 554.226562 281.390625 C 554.300781 280.625 554.339844 279.855469 554.339844 279.082031 C 554.339844 278.3125 554.300781 277.542969 554.226562 276.773438 C 554.152344 276.003906 554.039062 275.242188 553.890625 274.484375 C 553.742188 273.730469 553.554688 272.980469 553.332031 272.242188 C 553.109375 271.503906 552.851562 270.777344 552.558594 270.0625 C 552.265625 269.347656 551.941406 268.652344 551.578125 267.96875 C 551.21875 267.285156 550.824219 266.625 550.398438 265.980469 C 549.972656 265.335938 549.519531 264.714844 549.03125 264.117188 C 548.546875 263.515625 548.03125 262.941406 547.488281 262.394531 Z M 547.488281 262.394531 " fill-opacity="1" fill-rule="nonzero"/></svg>