<svg xmlns="http://www.w3.org/2000/svg" xmlns:xlink="http://www.w3.org/1999/xlink" width="1080" zoomAndPan="magnify" viewBox="0 0 810 809.999993" height="1080" preserveAspectRatio="xMidYMid meet" version="1.0"><defs><clipPath id="d7d77be51a"><path d="M 59 498 L 567 498 L 567 764.785156 L 59 764.785156 Z M 59 498 " clip-rule="nonzero"/></clipPath><clipPath id="22c1a9dc3c"><path d="M 611 175 L 752.167969 175 L 752.167969 675 L 611 675 Z M 611 175 " clip-rule="nonzero"/></clipPath></defs><path fill="#000000" d="M 421.597656 354.539062 C 377.414062 354.539062 341.460938 390.519531 341.460938 434.730469 C 341.460938 478.945312 377.414062 514.921875 421.597656 514.921875 C 465.777344 514.921875 501.730469 478.945312 501.730469 434.730469 C 501.730469 390.519531 465.777344 354.539062 421.597656 354.539062 Z M 421.597656 491.980469 C 390.042969 491.980469 364.386719 466.304688 364.386719 434.730469 C 364.386719 403.15625 390.042969 377.484375 421.597656 377.484375 C 453.148438 377.484375 478.804688 403.15625 478.804688 434.730469 C 478.804688 466.304688 453.148438 491.980469 421.597656 491.980469 Z M 421.597656 491.980469 " fill-opacity="1" fill-rule="nonzero"/><path fill="#000000" d="M 627.851562 383.03125 L 603.957031 325.300781 L 546.574219 328.25 L 528.003906 309.667969 L 530.953125 252.242188 L 473.257812 228.332031 L 434.753906 271.003906 L 408.4375 271.003906 L 369.933594 228.332031 L 312.242188 252.242188 L 315.1875 309.667969 L 296.617188 328.25 L 239.234375 325.300781 L 215.339844 383.03125 L 257.980469 421.566406 L 257.980469 447.855469 L 215.339844 486.386719 L 239.234375 544.117188 L 296.617188 541.167969 L 315.1875 559.75 L 312.242188 617.175781 L 369.933594 641.085938 L 408.4375 598.414062 L 434.753906 598.414062 L 473.257812 641.085938 L 530.953125 617.175781 L 528.003906 559.75 L 546.574219 541.167969 L 603.957031 544.117188 L 627.851562 486.386719 L 585.210938 447.855469 L 585.210938 421.566406 Z M 600.523438 492.550781 L 588.996094 520.425781 L 537.597656 517.785156 L 504.636719 550.769531 L 507.277344 602.203125 L 479.421875 613.742188 L 444.917969 575.515625 L 398.273438 575.515625 L 363.773438 613.742188 L 335.917969 602.203125 L 338.554688 550.769531 L 305.597656 517.785156 L 254.195312 520.425781 L 242.667969 492.550781 L 280.863281 458.027344 L 280.863281 411.347656 L 242.667969 376.824219 L 254.195312 348.949219 L 305.597656 351.589844 L 338.554688 318.605469 L 335.917969 267.171875 L 363.773438 255.632812 L 398.273438 293.859375 L 444.917969 293.859375 L 479.421875 255.632812 L 507.277344 267.171875 L 504.636719 318.605469 L 537.597656 351.589844 L 588.996094 348.949219 L 600.523438 376.824219 L 562.328125 411.347656 L 562.328125 458.027344 Z M 600.523438 492.550781 " fill-opacity="1" fill-rule="nonzero"/><g clip-path="url(#d7d77be51a)"><path fill="#000000" d="M 421.902344 741.886719 C 290.0625 741.886719 174.546875 659.273438 131.597656 535.398438 L 187.21875 568.425781 C 192.765625 571.730469 199.9375 569.792969 203.0625 564.15625 C 206.097656 558.695312 204.074219 551.824219 198.703125 548.609375 L 116.105469 499.597656 C 113.992188 498.363281 111.308594 499.070312 110.078125 501.136719 L 60.964844 583.972656 C 57.753906 589.433594 59.511719 596.433594 64.96875 599.648438 C 66.820312 600.75 68.800781 601.234375 70.777344 601.234375 C 74.695312 601.234375 78.480469 599.207031 80.636719 595.640625 L 110.648438 544.953125 C 120.945312 573.929688 135.203125 601.320312 153.203125 626.46875 C 173.179688 654.429688 197.296875 679.003906 224.84375 699.523438 C 252.699219 720.308594 283.503906 736.425781 316.289062 747.523438 C 350.21875 758.972656 385.730469 764.785156 421.859375 764.785156 C 448 764.785156 474.050781 761.703125 499.265625 755.671875 C 519.949219 750.695312 540.148438 743.691406 559.46875 734.839844 C 565.363281 732.15625 567.785156 725.066406 564.878906 719.296875 C 562.109375 713.792969 555.460938 711.457031 549.875 714.054688 C 509.695312 732.507812 466.703125 741.886719 421.902344 741.886719 Z M 421.902344 741.886719 " fill-opacity="1" fill-rule="nonzero"/></g><path fill="#000000" d="M 421.902344 126.914062 C 450.15625 126.914062 478.101562 130.746094 505.03125 138.320312 L 437.789062 158.179688 C 431.71875 159.988281 428.285156 166.328125 430.046875 172.40625 C 431.496094 177.382812 436.074219 180.640625 441.003906 180.640625 C 442.058594 180.640625 443.160156 180.507812 444.257812 180.15625 L 536.585938 152.898438 C 538.917969 152.191406 540.238281 149.769531 539.578125 147.4375 L 512.335938 55.046875 C 510.53125 48.972656 504.195312 45.535156 498.121094 47.296875 C 492.050781 49.101562 488.617188 55.445312 490.378906 61.519531 L 506.132812 114.894531 C 478.761719 107.671875 450.507812 104.015625 421.902344 104.015625 C 377.324219 104.015625 334.113281 112.734375 293.40625 130 C 254.109375 146.644531 218.773438 170.46875 188.453125 200.808594 C 158.132812 231.148438 134.324219 266.46875 117.691406 305.835938 C 101.980469 342.960938 93.355469 382.195312 91.945312 422.578125 C 91.726562 429.050781 96.917969 434.421875 103.386719 434.421875 C 109.546875 434.421875 114.609375 429.535156 114.828125 423.371094 C 120.636719 258.894531 256.175781 126.914062 421.902344 126.914062 Z M 421.902344 126.914062 " fill-opacity="1" fill-rule="nonzero"/><g clip-path="url(#22c1a9dc3c)"><path fill="#000000" d="M 730.386719 651.4375 L 670.847656 651.4375 C 723.347656 591.238281 752.082031 514.835938 752.082031 434.421875 C 752.082031 408.046875 748.957031 381.753906 742.796875 356.347656 C 736.8125 331.640625 727.921875 307.640625 716.4375 284.917969 C 695.667969 244.007812 666.09375 207.328125 630.449219 178.21875 C 625.433594 174.121094 618.039062 175.046875 614.121094 180.199219 C 610.382812 185.132812 611.261719 192.089844 616.015625 196.007812 C 688.054688 254.753906 729.15625 340.976562 729.15625 434.421875 C 729.15625 509.636719 702.179688 581.109375 652.847656 637.210938 L 652.847656 573.84375 C 652.847656 567.589844 647.964844 562.304688 641.714844 562.171875 C 635.246094 561.996094 629.964844 567.195312 629.964844 573.621094 L 629.964844 669.929688 C 629.964844 672.351562 631.945312 674.335938 634.367188 674.335938 L 730.605469 674.335938 C 737.03125 674.335938 742.226562 669.050781 742.046875 662.578125 C 741.871094 656.324219 736.636719 651.4375 730.386719 651.4375 Z M 730.386719 651.4375 " fill-opacity="1" fill-rule="nonzero"/></g></svg>